G75*
G70*
%OFA0B0*%
%FSLAX24Y24*%
%IPPOS*%
%LPD*%
%AMOC8*
5,1,8,0,0,1.08239X$1,22.5*
%
%ADD10C,0.0600*%
%ADD11R,0.0880X0.0237*%
%ADD12R,0.0860X0.0300*%
%ADD13C,0.1080*%
%ADD14R,0.1080X0.1080*%
%ADD15R,0.0789X0.0710*%
%ADD16R,0.0395X0.0552*%
%ADD17R,0.0552X0.0395*%
%ADD18C,0.0730*%
%ADD19R,0.0730X0.0730*%
%ADD20C,0.0820*%
%ADD21R,0.0890X0.0890*%
%ADD22C,0.0890*%
%ADD23C,0.1120*%
%ADD24R,0.0710X0.0789*%
%ADD25C,0.0595*%
%ADD26C,0.0552*%
%ADD27R,0.0476X0.0476*%
D10*
X019180Y019680D03*
X019180Y020680D03*
X019180Y021680D03*
X019180Y022680D03*
X019180Y023680D03*
X019180Y024680D03*
X022180Y024680D03*
X022180Y023680D03*
X022180Y022680D03*
X022180Y021680D03*
X022180Y020680D03*
X022180Y019680D03*
D11*
X011521Y019430D03*
X011521Y018930D03*
X011521Y019930D03*
X011521Y020430D03*
X011521Y020930D03*
X011521Y021430D03*
X011521Y021930D03*
X011521Y022430D03*
X011521Y022930D03*
X011521Y023430D03*
X011521Y023930D03*
X011521Y024430D03*
X011521Y024930D03*
X011521Y025430D03*
X007839Y025430D03*
X007839Y024930D03*
X007839Y024430D03*
X007839Y023930D03*
X007839Y023430D03*
X007839Y022930D03*
X007839Y022430D03*
X007839Y021930D03*
X007839Y021430D03*
X007839Y020930D03*
X007839Y020430D03*
X007839Y019930D03*
X007839Y019430D03*
X007839Y018930D03*
D12*
X029900Y018930D03*
X029900Y019430D03*
X029900Y019930D03*
X029900Y020430D03*
X029900Y020930D03*
X029900Y021430D03*
X029900Y021930D03*
X029900Y022430D03*
X029900Y022930D03*
X029900Y023430D03*
X029900Y023930D03*
X029900Y024430D03*
X029900Y024930D03*
X029900Y025430D03*
X033460Y025430D03*
X033460Y024930D03*
X033460Y024430D03*
X033460Y023930D03*
X033460Y023430D03*
X033460Y022930D03*
X033460Y022430D03*
X033460Y021930D03*
X033460Y021430D03*
X033460Y020930D03*
X033460Y020430D03*
X033460Y019930D03*
X033460Y019430D03*
X033460Y018930D03*
D13*
X022495Y009603D03*
X018745Y009603D03*
X018745Y015853D03*
X019995Y015853D03*
D14*
X022495Y015853D03*
D15*
X017219Y015802D03*
X017219Y014700D03*
X028672Y019125D03*
X028672Y020227D03*
X028633Y023086D03*
X028633Y024188D03*
X034337Y025129D03*
X034337Y026231D03*
X036032Y022054D03*
X036032Y020952D03*
D16*
X016652Y009605D03*
X017361Y009605D03*
X028381Y025523D03*
X029089Y025523D03*
X032176Y026172D03*
X032885Y026172D03*
D17*
X036930Y022534D03*
X036930Y021826D03*
X036920Y021334D03*
X036920Y020625D03*
D18*
X020641Y004428D03*
D19*
X020641Y005428D03*
D20*
X038736Y021180D03*
X038836Y022180D03*
X038736Y023180D03*
X038836Y024180D03*
X038736Y025180D03*
X038836Y026180D03*
D21*
X017814Y028747D03*
D22*
X022814Y028747D03*
D23*
X024680Y024180D03*
X015880Y018870D03*
X024680Y013560D03*
D24*
X011751Y026215D03*
X010649Y026215D03*
D25*
X019849Y007971D03*
X020637Y007971D03*
X021424Y007971D03*
X021424Y007184D03*
X020637Y007184D03*
X019849Y007184D03*
D26*
X018944Y007578D03*
X022330Y007578D03*
D27*
X029889Y017979D03*
X036952Y023294D03*
X035349Y025664D03*
X031282Y026180D03*
X027672Y025526D03*
X013893Y022924D03*
X013235Y022436D03*
X012574Y021936D03*
X013235Y021428D03*
X013924Y020908D03*
X013235Y023436D03*
X012574Y023936D03*
X011755Y027495D03*
X006826Y024936D03*
X006208Y024432D03*
X005487Y023936D03*
M02*
