G75*
G70*
%OFA0B0*%
%FSLAX24Y24*%
%IPPOS*%
%LPD*%
%AMOC8*
5,1,8,0,0,1.08239X$1,22.5*
%
%ADD10C,0.0000*%
%ADD11C,0.0200*%
%ADD12C,0.0260*%
%ADD13C,0.0100*%
%ADD14C,0.0520*%
%ADD15R,0.0800X0.0157*%
%ADD16R,0.0780X0.0220*%
%ADD17C,0.1000*%
%ADD18R,0.1000X0.1000*%
%ADD19R,0.0709X0.0630*%
%ADD20R,0.0315X0.0472*%
%ADD21R,0.0472X0.0315*%
%ADD22C,0.0650*%
%ADD23R,0.0650X0.0650*%
%ADD24C,0.0740*%
%ADD25R,0.0810X0.0810*%
%ADD26C,0.0810*%
%ADD27R,0.0630X0.0709*%
%ADD28C,0.0515*%
%ADD29C,0.0160*%
%ADD30R,0.0396X0.0396*%
D10*
X018708Y007578D02*
X018710Y007608D01*
X018716Y007638D01*
X018725Y007667D01*
X018738Y007694D01*
X018755Y007719D01*
X018774Y007742D01*
X018797Y007763D01*
X018822Y007780D01*
X018848Y007794D01*
X018877Y007804D01*
X018906Y007811D01*
X018936Y007814D01*
X018967Y007813D01*
X018997Y007808D01*
X019026Y007799D01*
X019053Y007787D01*
X019079Y007772D01*
X019103Y007753D01*
X019124Y007731D01*
X019142Y007707D01*
X019157Y007680D01*
X019168Y007652D01*
X019176Y007623D01*
X019180Y007593D01*
X019180Y007563D01*
X019176Y007533D01*
X019168Y007504D01*
X019157Y007476D01*
X019142Y007449D01*
X019124Y007425D01*
X019103Y007403D01*
X019079Y007384D01*
X019053Y007369D01*
X019026Y007357D01*
X018997Y007348D01*
X018967Y007343D01*
X018936Y007342D01*
X018906Y007345D01*
X018877Y007352D01*
X018848Y007362D01*
X018822Y007376D01*
X018797Y007393D01*
X018774Y007414D01*
X018755Y007437D01*
X018738Y007462D01*
X018725Y007489D01*
X018716Y007518D01*
X018710Y007548D01*
X018708Y007578D01*
X022094Y007578D02*
X022096Y007608D01*
X022102Y007638D01*
X022111Y007667D01*
X022124Y007694D01*
X022141Y007719D01*
X022160Y007742D01*
X022183Y007763D01*
X022208Y007780D01*
X022234Y007794D01*
X022263Y007804D01*
X022292Y007811D01*
X022322Y007814D01*
X022353Y007813D01*
X022383Y007808D01*
X022412Y007799D01*
X022439Y007787D01*
X022465Y007772D01*
X022489Y007753D01*
X022510Y007731D01*
X022528Y007707D01*
X022543Y007680D01*
X022554Y007652D01*
X022562Y007623D01*
X022566Y007593D01*
X022566Y007563D01*
X022562Y007533D01*
X022554Y007504D01*
X022543Y007476D01*
X022528Y007449D01*
X022510Y007425D01*
X022489Y007403D01*
X022465Y007384D01*
X022439Y007369D01*
X022412Y007357D01*
X022383Y007348D01*
X022353Y007343D01*
X022322Y007342D01*
X022292Y007345D01*
X022263Y007352D01*
X022234Y007362D01*
X022208Y007376D01*
X022183Y007393D01*
X022160Y007414D01*
X022141Y007437D01*
X022124Y007462D01*
X022111Y007489D01*
X022102Y007518D01*
X022096Y007548D01*
X022094Y007578D01*
X024160Y013560D02*
X024162Y013605D01*
X024168Y013650D01*
X024178Y013695D01*
X024191Y013738D01*
X024209Y013780D01*
X024230Y013820D01*
X024254Y013858D01*
X024282Y013894D01*
X024312Y013928D01*
X024346Y013958D01*
X024382Y013986D01*
X024420Y014010D01*
X024460Y014031D01*
X024502Y014049D01*
X024545Y014062D01*
X024590Y014072D01*
X024635Y014078D01*
X024680Y014080D01*
X024725Y014078D01*
X024770Y014072D01*
X024815Y014062D01*
X024858Y014049D01*
X024900Y014031D01*
X024940Y014010D01*
X024978Y013986D01*
X025014Y013958D01*
X025048Y013928D01*
X025078Y013894D01*
X025106Y013858D01*
X025130Y013820D01*
X025151Y013780D01*
X025169Y013738D01*
X025182Y013695D01*
X025192Y013650D01*
X025198Y013605D01*
X025200Y013560D01*
X025198Y013515D01*
X025192Y013470D01*
X025182Y013425D01*
X025169Y013382D01*
X025151Y013340D01*
X025130Y013300D01*
X025106Y013262D01*
X025078Y013226D01*
X025048Y013192D01*
X025014Y013162D01*
X024978Y013134D01*
X024940Y013110D01*
X024900Y013089D01*
X024858Y013071D01*
X024815Y013058D01*
X024770Y013048D01*
X024725Y013042D01*
X024680Y013040D01*
X024635Y013042D01*
X024590Y013048D01*
X024545Y013058D01*
X024502Y013071D01*
X024460Y013089D01*
X024420Y013110D01*
X024382Y013134D01*
X024346Y013162D01*
X024312Y013192D01*
X024282Y013226D01*
X024254Y013262D01*
X024230Y013300D01*
X024209Y013340D01*
X024191Y013382D01*
X024178Y013425D01*
X024168Y013470D01*
X024162Y013515D01*
X024160Y013560D01*
X015360Y018870D02*
X015362Y018915D01*
X015368Y018960D01*
X015378Y019005D01*
X015391Y019048D01*
X015409Y019090D01*
X015430Y019130D01*
X015454Y019168D01*
X015482Y019204D01*
X015512Y019238D01*
X015546Y019268D01*
X015582Y019296D01*
X015620Y019320D01*
X015660Y019341D01*
X015702Y019359D01*
X015745Y019372D01*
X015790Y019382D01*
X015835Y019388D01*
X015880Y019390D01*
X015925Y019388D01*
X015970Y019382D01*
X016015Y019372D01*
X016058Y019359D01*
X016100Y019341D01*
X016140Y019320D01*
X016178Y019296D01*
X016214Y019268D01*
X016248Y019238D01*
X016278Y019204D01*
X016306Y019168D01*
X016330Y019130D01*
X016351Y019090D01*
X016369Y019048D01*
X016382Y019005D01*
X016392Y018960D01*
X016398Y018915D01*
X016400Y018870D01*
X016398Y018825D01*
X016392Y018780D01*
X016382Y018735D01*
X016369Y018692D01*
X016351Y018650D01*
X016330Y018610D01*
X016306Y018572D01*
X016278Y018536D01*
X016248Y018502D01*
X016214Y018472D01*
X016178Y018444D01*
X016140Y018420D01*
X016100Y018399D01*
X016058Y018381D01*
X016015Y018368D01*
X015970Y018358D01*
X015925Y018352D01*
X015880Y018350D01*
X015835Y018352D01*
X015790Y018358D01*
X015745Y018368D01*
X015702Y018381D01*
X015660Y018399D01*
X015620Y018420D01*
X015582Y018444D01*
X015546Y018472D01*
X015512Y018502D01*
X015482Y018536D01*
X015454Y018572D01*
X015430Y018610D01*
X015409Y018650D01*
X015391Y018692D01*
X015378Y018735D01*
X015368Y018780D01*
X015362Y018825D01*
X015360Y018870D01*
X024160Y024180D02*
X024162Y024225D01*
X024168Y024270D01*
X024178Y024315D01*
X024191Y024358D01*
X024209Y024400D01*
X024230Y024440D01*
X024254Y024478D01*
X024282Y024514D01*
X024312Y024548D01*
X024346Y024578D01*
X024382Y024606D01*
X024420Y024630D01*
X024460Y024651D01*
X024502Y024669D01*
X024545Y024682D01*
X024590Y024692D01*
X024635Y024698D01*
X024680Y024700D01*
X024725Y024698D01*
X024770Y024692D01*
X024815Y024682D01*
X024858Y024669D01*
X024900Y024651D01*
X024940Y024630D01*
X024978Y024606D01*
X025014Y024578D01*
X025048Y024548D01*
X025078Y024514D01*
X025106Y024478D01*
X025130Y024440D01*
X025151Y024400D01*
X025169Y024358D01*
X025182Y024315D01*
X025192Y024270D01*
X025198Y024225D01*
X025200Y024180D01*
X025198Y024135D01*
X025192Y024090D01*
X025182Y024045D01*
X025169Y024002D01*
X025151Y023960D01*
X025130Y023920D01*
X025106Y023882D01*
X025078Y023846D01*
X025048Y023812D01*
X025014Y023782D01*
X024978Y023754D01*
X024940Y023730D01*
X024900Y023709D01*
X024858Y023691D01*
X024815Y023678D01*
X024770Y023668D01*
X024725Y023662D01*
X024680Y023660D01*
X024635Y023662D01*
X024590Y023668D01*
X024545Y023678D01*
X024502Y023691D01*
X024460Y023709D01*
X024420Y023730D01*
X024382Y023754D01*
X024346Y023782D01*
X024312Y023812D01*
X024282Y023846D01*
X024254Y023882D01*
X024230Y023920D01*
X024209Y023960D01*
X024191Y024002D01*
X024178Y024045D01*
X024168Y024090D01*
X024162Y024135D01*
X024160Y024180D01*
X020430Y030180D02*
X023930Y033680D01*
X034180Y033680D01*
X040180Y027680D01*
X040180Y019680D01*
X021180Y000680D01*
X019680Y000680D01*
X000680Y019680D01*
X000680Y027680D01*
X006680Y033680D01*
X016930Y033680D01*
X020430Y030180D01*
D11*
X011121Y032681D02*
X011098Y032813D01*
X011121Y032681D02*
X010904Y032372D01*
X010974Y031978D01*
X010904Y032372D02*
X010595Y032589D01*
X010572Y032720D01*
X010214Y032521D02*
X010260Y032259D01*
X010152Y032104D01*
X009758Y032034D01*
X009804Y031772D02*
X009665Y032560D01*
X010060Y032630D01*
X010214Y032521D01*
X009307Y032361D02*
X009354Y032099D01*
X009245Y031944D01*
X008851Y031875D01*
X008898Y031612D02*
X008759Y032400D01*
X009153Y032470D01*
X009307Y032361D01*
X008424Y032070D02*
X008516Y031544D01*
X008447Y031939D02*
X007921Y031846D01*
X007898Y031977D02*
X007991Y031452D01*
X007610Y031385D02*
X007471Y032173D01*
X007540Y031779D02*
X007014Y031686D01*
X006945Y032080D02*
X007084Y031292D01*
X007898Y031977D02*
X008115Y032287D01*
X008424Y032070D01*
D12*
X010676Y031473D02*
X010676Y030602D01*
X011257Y030892D01*
X011547Y030892D01*
X011837Y030602D01*
X011837Y030022D01*
X011547Y029731D01*
X010966Y029731D01*
X010676Y030022D01*
X010676Y031473D02*
X011837Y031473D01*
X012518Y031183D02*
X012808Y031473D01*
X013388Y031473D01*
X013679Y031183D01*
X012518Y030022D01*
X012808Y029731D01*
X013388Y029731D01*
X013679Y030022D01*
X013679Y031183D01*
X014359Y030892D02*
X014940Y030892D01*
X014650Y031183D02*
X014650Y030022D01*
X014940Y029731D01*
X015587Y029731D02*
X015587Y031473D01*
X015877Y030892D02*
X016458Y030892D01*
X016748Y030602D01*
X016748Y029731D01*
X015587Y030602D02*
X015877Y030892D01*
X012518Y031183D02*
X012518Y030022D01*
D13*
X024376Y031226D02*
X024376Y031887D01*
X024816Y031887D01*
X025075Y031666D02*
X025075Y031226D01*
X025075Y031446D02*
X025296Y031666D01*
X025406Y031666D01*
X025659Y031556D02*
X025659Y031336D01*
X025769Y031226D01*
X025989Y031226D01*
X026099Y031336D01*
X026099Y031556D01*
X025989Y031666D01*
X025769Y031666D01*
X025659Y031556D01*
X026358Y031666D02*
X026358Y031226D01*
X026579Y031226D02*
X026579Y031556D01*
X026689Y031666D01*
X026799Y031556D01*
X026799Y031226D01*
X027058Y031226D02*
X027058Y031336D01*
X027168Y031336D01*
X027168Y031226D01*
X027058Y031226D01*
X027058Y031556D02*
X027058Y031666D01*
X027168Y031666D01*
X027168Y031556D01*
X027058Y031556D01*
X026579Y031556D02*
X026469Y031666D01*
X026358Y031666D01*
X025885Y032407D02*
X025775Y032407D01*
X025775Y032517D01*
X025885Y032517D01*
X025885Y032407D01*
X025885Y032737D02*
X025775Y032737D01*
X025775Y032848D01*
X025885Y032848D01*
X025885Y032737D01*
X025516Y032737D02*
X025516Y032517D01*
X025406Y032407D01*
X025186Y032407D01*
X025075Y032517D01*
X025075Y032737D01*
X025186Y032848D01*
X025406Y032848D01*
X025516Y032737D01*
X024816Y033068D02*
X024376Y033068D01*
X024596Y033068D02*
X024596Y032407D01*
X024596Y031556D02*
X024376Y031556D01*
X026825Y032517D02*
X026935Y032407D01*
X027155Y032407D01*
X027265Y032517D01*
X027525Y032517D02*
X027635Y032627D01*
X027965Y032627D01*
X027965Y032737D02*
X027965Y032407D01*
X027635Y032407D01*
X027525Y032517D01*
X027635Y032848D02*
X027855Y032848D01*
X027965Y032737D01*
X028225Y032848D02*
X028445Y032848D01*
X028335Y032958D02*
X028335Y032517D01*
X028445Y032407D01*
X028691Y032407D02*
X028691Y033068D01*
X028801Y032848D02*
X029021Y032848D01*
X029131Y032737D01*
X029131Y032407D01*
X029391Y032517D02*
X029501Y032407D01*
X029831Y032407D01*
X029831Y032297D02*
X029721Y032187D01*
X029611Y032187D01*
X029831Y032297D02*
X029831Y032848D01*
X029391Y032848D02*
X029391Y032517D01*
X028801Y032848D02*
X028691Y032737D01*
X028438Y031887D02*
X028108Y031887D01*
X028108Y031226D01*
X028108Y031446D02*
X028438Y031446D01*
X028548Y031556D01*
X028548Y031777D01*
X028438Y031887D01*
X028918Y031666D02*
X029138Y031666D01*
X029248Y031556D01*
X029248Y031226D01*
X028918Y031226D01*
X028808Y031336D01*
X028918Y031446D01*
X029248Y031446D01*
X029508Y031666D02*
X029728Y031226D01*
X029948Y031666D01*
X030207Y031887D02*
X030317Y031887D01*
X030317Y031226D01*
X030207Y031226D02*
X030427Y031226D01*
X030674Y031336D02*
X030784Y031226D01*
X031004Y031226D01*
X031114Y031336D01*
X031114Y031556D01*
X031004Y031666D01*
X030784Y031666D01*
X030674Y031556D01*
X030674Y031336D01*
X027265Y032958D02*
X027155Y033068D01*
X026935Y033068D01*
X026825Y032958D01*
X026825Y032517D01*
D14*
X022180Y024680D03*
X022180Y023680D03*
X022180Y022680D03*
X022180Y021680D03*
X022180Y020680D03*
X022180Y019680D03*
X019180Y019680D03*
X019180Y020680D03*
X019180Y021680D03*
X019180Y022680D03*
X019180Y023680D03*
X019180Y024680D03*
D15*
X011521Y024430D03*
X011521Y024930D03*
X011521Y025430D03*
X011521Y023930D03*
X011521Y023430D03*
X011521Y022930D03*
X011521Y022430D03*
X011521Y021930D03*
X011521Y021430D03*
X011521Y020930D03*
X011521Y020430D03*
X011521Y019930D03*
X011521Y019430D03*
X011521Y018930D03*
X007839Y018930D03*
X007839Y019430D03*
X007839Y019930D03*
X007839Y020430D03*
X007839Y020930D03*
X007839Y021430D03*
X007839Y021930D03*
X007839Y022430D03*
X007839Y022930D03*
X007839Y023430D03*
X007839Y023930D03*
X007839Y024430D03*
X007839Y024930D03*
X007839Y025430D03*
D16*
X029900Y025430D03*
X029900Y024930D03*
X029900Y024430D03*
X029900Y023930D03*
X029900Y023430D03*
X029900Y022930D03*
X029900Y022430D03*
X029900Y021930D03*
X029900Y021430D03*
X029900Y020930D03*
X029900Y020430D03*
X029900Y019930D03*
X029900Y019430D03*
X029900Y018930D03*
X033460Y018930D03*
X033460Y019430D03*
X033460Y019930D03*
X033460Y020430D03*
X033460Y020930D03*
X033460Y021430D03*
X033460Y021930D03*
X033460Y022430D03*
X033460Y022930D03*
X033460Y023430D03*
X033460Y023930D03*
X033460Y024430D03*
X033460Y024930D03*
X033460Y025430D03*
D17*
X019995Y015853D03*
X018745Y015853D03*
X018745Y009603D03*
X022495Y009603D03*
D18*
X022495Y015853D03*
D19*
X017219Y015802D03*
X017219Y014700D03*
X028672Y019125D03*
X028672Y020227D03*
X028633Y023086D03*
X028633Y024188D03*
X034337Y025129D03*
X034337Y026231D03*
X036032Y022054D03*
X036032Y020952D03*
D20*
X032885Y026172D03*
X032176Y026172D03*
X029089Y025523D03*
X028381Y025523D03*
X017361Y009605D03*
X016652Y009605D03*
D21*
X036920Y020625D03*
X036920Y021334D03*
X036930Y021826D03*
X036930Y022534D03*
D22*
X020641Y004428D03*
D23*
X020641Y005428D03*
D24*
X038736Y021180D03*
X038836Y022180D03*
X038736Y023180D03*
X038836Y024180D03*
X038736Y025180D03*
X038836Y026180D03*
D25*
X017814Y028747D03*
D26*
X022814Y028747D03*
D27*
X011751Y026215D03*
X010649Y026215D03*
D28*
X019849Y007971D03*
X020637Y007971D03*
X021424Y007971D03*
X021424Y007184D03*
X020637Y007184D03*
X019849Y007184D03*
D29*
X016964Y009824D02*
X011215Y009824D01*
X011373Y009666D02*
X016964Y009666D01*
X016964Y009507D02*
X011532Y009507D01*
X011690Y009349D02*
X016964Y009349D01*
X016964Y009321D02*
X017000Y009233D01*
X017068Y009166D01*
X017156Y009129D01*
X017566Y009129D01*
X017655Y009166D01*
X017722Y009233D01*
X017743Y009283D01*
X018077Y009283D01*
X018118Y009184D01*
X018326Y008976D01*
X018598Y008863D01*
X018892Y008863D01*
X019164Y008976D01*
X019372Y009184D01*
X019485Y009456D01*
X019485Y009750D01*
X019372Y010022D01*
X019164Y010231D01*
X018892Y010343D01*
X018598Y010343D01*
X018326Y010231D01*
X018118Y010022D01*
X018077Y009923D01*
X017744Y009923D01*
X017722Y009977D01*
X017655Y010045D01*
X017566Y010081D01*
X017156Y010081D01*
X017068Y010045D01*
X017000Y009977D01*
X016964Y009889D01*
X016964Y009321D01*
X017043Y009190D02*
X011849Y009190D01*
X012007Y009032D02*
X018270Y009032D01*
X018115Y009190D02*
X017679Y009190D01*
X017363Y009603D02*
X017361Y009605D01*
X017363Y009603D02*
X018745Y009603D01*
X019254Y010141D02*
X021986Y010141D01*
X022076Y010231D02*
X021868Y010022D01*
X021755Y009750D01*
X021755Y009456D01*
X021868Y009184D01*
X022076Y008976D01*
X022348Y008863D01*
X022642Y008863D01*
X022914Y008976D01*
X023122Y009184D01*
X023235Y009456D01*
X023235Y009750D01*
X023122Y010022D01*
X022914Y010231D01*
X022642Y010343D01*
X022348Y010343D01*
X022076Y010231D01*
X022242Y010300D02*
X018998Y010300D01*
X019389Y009983D02*
X021851Y009983D01*
X021785Y009824D02*
X019454Y009824D01*
X019485Y009666D02*
X021755Y009666D01*
X021755Y009507D02*
X019485Y009507D01*
X019440Y009349D02*
X021799Y009349D01*
X021865Y009190D02*
X019375Y009190D01*
X019220Y009032D02*
X022020Y009032D01*
X022324Y008873D02*
X018916Y008873D01*
X018574Y008873D02*
X012166Y008873D01*
X012324Y008715D02*
X028536Y008715D01*
X028694Y008873D02*
X022666Y008873D01*
X022970Y009032D02*
X028853Y009032D01*
X029011Y009190D02*
X023125Y009190D01*
X023190Y009349D02*
X029170Y009349D01*
X029328Y009507D02*
X023235Y009507D01*
X023235Y009666D02*
X029487Y009666D01*
X029645Y009824D02*
X023204Y009824D01*
X023139Y009983D02*
X029804Y009983D01*
X029962Y010141D02*
X023004Y010141D01*
X022748Y010300D02*
X030121Y010300D01*
X030279Y010458D02*
X010581Y010458D01*
X010739Y010300D02*
X018492Y010300D01*
X018236Y010141D02*
X010898Y010141D01*
X011056Y009983D02*
X017005Y009983D01*
X017717Y009983D02*
X018101Y009983D01*
X018801Y008294D02*
X018538Y008185D01*
X018337Y007983D01*
X018228Y007720D01*
X018228Y007435D01*
X018337Y007172D01*
X018538Y006970D01*
X018801Y006861D01*
X019086Y006861D01*
X019349Y006970D01*
X019385Y007006D01*
X019428Y006902D01*
X019567Y006762D01*
X019750Y006686D01*
X019948Y006686D01*
X020131Y006762D01*
X020243Y006874D01*
X020355Y006762D01*
X020538Y006686D01*
X020736Y006686D01*
X020918Y006762D01*
X021030Y006874D01*
X021142Y006762D01*
X021325Y006686D01*
X021523Y006686D01*
X021706Y006762D01*
X021846Y006902D01*
X021889Y007006D01*
X021924Y006970D01*
X022187Y006861D01*
X022472Y006861D01*
X022735Y006970D01*
X022937Y007172D01*
X023046Y007435D01*
X023046Y007720D01*
X022937Y007983D01*
X022735Y008185D01*
X022472Y008294D01*
X022187Y008294D01*
X021924Y008185D01*
X021889Y008150D01*
X021846Y008253D01*
X021706Y008393D01*
X021523Y008469D01*
X021325Y008469D01*
X021142Y008393D01*
X021030Y008281D01*
X020918Y008393D01*
X020736Y008469D01*
X020538Y008469D01*
X020355Y008393D01*
X020243Y008281D01*
X020131Y008393D01*
X019948Y008469D01*
X019750Y008469D01*
X019567Y008393D01*
X019428Y008253D01*
X019385Y008150D01*
X019349Y008185D01*
X019086Y008294D01*
X018801Y008294D01*
X018669Y008239D02*
X012800Y008239D01*
X012958Y008081D02*
X018434Y008081D01*
X018311Y007922D02*
X013117Y007922D01*
X013275Y007764D02*
X018246Y007764D01*
X018228Y007605D02*
X013434Y007605D01*
X013592Y007447D02*
X018228Y007447D01*
X018289Y007288D02*
X013751Y007288D01*
X013909Y007130D02*
X018379Y007130D01*
X018538Y006971D02*
X014068Y006971D01*
X014226Y006813D02*
X019517Y006813D01*
X019399Y006971D02*
X019350Y006971D01*
X020181Y006813D02*
X020305Y006813D01*
X020969Y006813D02*
X021092Y006813D01*
X021756Y006813D02*
X026634Y006813D01*
X026792Y006971D02*
X022736Y006971D01*
X022894Y007130D02*
X026951Y007130D01*
X027109Y007288D02*
X022985Y007288D01*
X023046Y007447D02*
X027268Y007447D01*
X027426Y007605D02*
X023046Y007605D01*
X023028Y007764D02*
X027585Y007764D01*
X027743Y007922D02*
X022962Y007922D01*
X022840Y008081D02*
X027902Y008081D01*
X028060Y008239D02*
X022604Y008239D01*
X022055Y008239D02*
X021852Y008239D01*
X021695Y008398D02*
X028219Y008398D01*
X028377Y008556D02*
X012483Y008556D01*
X012641Y008398D02*
X019578Y008398D01*
X019422Y008239D02*
X019219Y008239D01*
X020120Y008398D02*
X020366Y008398D01*
X020908Y008398D02*
X021153Y008398D01*
X021874Y006971D02*
X021923Y006971D01*
X021102Y005956D02*
X021013Y005993D01*
X020268Y005993D01*
X020180Y005956D01*
X020112Y005889D01*
X020076Y005801D01*
X020076Y005055D01*
X020112Y004967D01*
X020180Y004900D01*
X020268Y004863D01*
X021013Y004863D01*
X021102Y004900D01*
X021169Y004967D01*
X021206Y005055D01*
X021206Y005801D01*
X021169Y005889D01*
X021102Y005956D01*
X021180Y005862D02*
X025683Y005862D01*
X025841Y006020D02*
X015019Y006020D01*
X015177Y005862D02*
X020101Y005862D01*
X020076Y005703D02*
X015336Y005703D01*
X015494Y005545D02*
X020076Y005545D01*
X020076Y005386D02*
X015653Y005386D01*
X015811Y005228D02*
X020076Y005228D01*
X020076Y005069D02*
X015970Y005069D01*
X016128Y004911D02*
X020169Y004911D01*
X021113Y004911D02*
X024732Y004911D01*
X024890Y005069D02*
X021206Y005069D01*
X021206Y005228D02*
X025049Y005228D01*
X025207Y005386D02*
X021206Y005386D01*
X021206Y005545D02*
X025366Y005545D01*
X025524Y005703D02*
X021206Y005703D01*
X023305Y003484D02*
X017555Y003484D01*
X017713Y003326D02*
X023147Y003326D01*
X022988Y003167D02*
X017872Y003167D01*
X018030Y003009D02*
X022830Y003009D01*
X022671Y002850D02*
X018189Y002850D01*
X018347Y002692D02*
X022513Y002692D01*
X022354Y002533D02*
X018506Y002533D01*
X018664Y002375D02*
X022196Y002375D01*
X022037Y002216D02*
X018823Y002216D01*
X018981Y002058D02*
X021879Y002058D01*
X021720Y001899D02*
X019140Y001899D01*
X019298Y001741D02*
X021562Y001741D01*
X021403Y001582D02*
X019457Y001582D01*
X019615Y001424D02*
X021245Y001424D01*
X021086Y001265D02*
X019774Y001265D01*
X019879Y001160D02*
X001160Y019879D01*
X001160Y027481D01*
X006879Y033200D01*
X016731Y033200D01*
X020023Y029908D01*
X020158Y029773D01*
X020335Y029700D01*
X020525Y029700D01*
X020702Y029773D01*
X024108Y033179D01*
X024086Y033125D01*
X024086Y033010D01*
X024130Y032903D01*
X024211Y032822D01*
X024306Y032783D01*
X024306Y032349D01*
X024350Y032243D01*
X024416Y032177D01*
X024318Y032177D01*
X024211Y032132D01*
X024130Y032051D01*
X024086Y031944D01*
X024086Y031168D01*
X024130Y031062D01*
X024211Y030980D01*
X024318Y030936D01*
X024433Y030936D01*
X024540Y030980D01*
X024622Y031062D01*
X024666Y031168D01*
X024666Y031271D01*
X024760Y031310D01*
X024785Y031336D01*
X024785Y031168D01*
X024830Y031062D01*
X024911Y030980D01*
X025018Y030936D01*
X025133Y030936D01*
X025240Y030980D01*
X025321Y031062D01*
X025365Y031168D01*
X025365Y031326D01*
X025369Y031329D01*
X025369Y031278D01*
X025413Y031172D01*
X025604Y030980D01*
X025711Y030936D01*
X026047Y030936D01*
X026153Y030980D01*
X026174Y031001D01*
X026194Y030980D01*
X026301Y030936D01*
X026416Y030936D01*
X026469Y030958D01*
X026521Y030936D01*
X026636Y030936D01*
X026689Y030958D01*
X026741Y030936D01*
X026856Y030936D01*
X026929Y030966D01*
X027001Y030936D01*
X027226Y030936D01*
X027333Y030980D01*
X027414Y031062D01*
X027458Y031168D01*
X027458Y031394D01*
X027437Y031446D01*
X027458Y031499D01*
X027458Y031724D01*
X027414Y031831D01*
X027333Y031912D01*
X027226Y031956D01*
X027001Y031956D01*
X026894Y031912D01*
X026873Y031892D01*
X026853Y031912D01*
X026789Y031939D01*
X026746Y031956D01*
X026631Y031956D01*
X026579Y031935D01*
X026526Y031956D01*
X026301Y031956D01*
X026194Y031912D01*
X026174Y031892D01*
X026153Y031912D01*
X026047Y031956D01*
X025711Y031956D01*
X025604Y031912D01*
X025587Y031895D01*
X025570Y031912D01*
X025463Y031956D01*
X025238Y031956D01*
X025186Y031935D01*
X025133Y031956D01*
X025101Y031956D01*
X025062Y032051D01*
X024980Y032132D01*
X024874Y032177D01*
X024775Y032177D01*
X024842Y032243D01*
X024870Y032312D01*
X025021Y032161D01*
X025128Y032117D01*
X025463Y032117D01*
X025570Y032161D01*
X025591Y032182D01*
X025611Y032161D01*
X025718Y032117D01*
X025943Y032117D01*
X026050Y032161D01*
X026131Y032243D01*
X026175Y032349D01*
X026175Y032575D01*
X026154Y032627D01*
X026175Y032680D01*
X026175Y032905D01*
X026131Y033012D01*
X026050Y033093D01*
X025943Y033138D01*
X025718Y033138D01*
X025611Y033093D01*
X025591Y033073D01*
X025570Y033093D01*
X025463Y033138D01*
X025128Y033138D01*
X025105Y033128D01*
X025075Y033200D01*
X026657Y033200D01*
X026579Y033122D01*
X026535Y033015D01*
X026535Y032460D01*
X026579Y032353D01*
X026689Y032243D01*
X026771Y032161D01*
X026877Y032117D01*
X027213Y032117D01*
X027320Y032161D01*
X027395Y032237D01*
X027471Y032161D01*
X027577Y032117D01*
X027928Y032117D01*
X027862Y032051D01*
X027818Y031944D01*
X027818Y031168D01*
X027862Y031062D01*
X027944Y030980D01*
X028050Y030936D01*
X028166Y030936D01*
X028272Y030980D01*
X028354Y031062D01*
X028393Y031156D01*
X028496Y031156D01*
X028539Y031174D01*
X028558Y031182D01*
X028562Y031172D01*
X028643Y031090D01*
X028643Y031090D01*
X028754Y030980D01*
X028860Y030936D01*
X029306Y030936D01*
X029412Y030980D01*
X029488Y031056D01*
X029494Y031045D01*
X029522Y031020D01*
X029546Y030992D01*
X029565Y030983D01*
X029581Y030969D01*
X029616Y030957D01*
X029650Y030941D01*
X029671Y030939D01*
X029691Y030933D01*
X029728Y030935D01*
X029765Y030933D01*
X029785Y030939D01*
X029806Y030941D01*
X029839Y030957D01*
X029874Y030969D01*
X029890Y030983D01*
X029909Y030992D01*
X029933Y031020D01*
X029961Y031045D01*
X029967Y031056D01*
X030043Y030980D01*
X030150Y030936D01*
X030485Y030936D01*
X030592Y030980D01*
X030606Y030994D01*
X030620Y030980D01*
X030726Y030936D01*
X031062Y030936D01*
X031168Y030980D01*
X031278Y031090D01*
X031360Y031172D01*
X031404Y031278D01*
X031404Y031614D01*
X031360Y031721D01*
X031250Y031831D01*
X031168Y031912D01*
X031062Y031956D01*
X030726Y031956D01*
X030620Y031912D01*
X030607Y031900D01*
X030607Y031944D01*
X030563Y032051D01*
X030482Y032132D01*
X030375Y032177D01*
X030150Y032177D01*
X030084Y032149D01*
X030121Y032239D01*
X030121Y032905D01*
X030077Y033012D01*
X029996Y033093D01*
X029889Y033138D01*
X029774Y033138D01*
X029667Y033093D01*
X029611Y033037D01*
X029555Y033093D01*
X029449Y033138D01*
X029333Y033138D01*
X029227Y033093D01*
X029206Y033073D01*
X029186Y033093D01*
X029079Y033138D01*
X028976Y033138D01*
X028950Y033200D01*
X033981Y033200D01*
X039700Y027481D01*
X039700Y019879D01*
X020981Y001160D01*
X019879Y001160D01*
X017396Y003643D02*
X023464Y003643D01*
X023622Y003801D02*
X017238Y003801D01*
X017079Y003960D02*
X023781Y003960D01*
X023939Y004118D02*
X016921Y004118D01*
X016762Y004277D02*
X024098Y004277D01*
X024256Y004435D02*
X016604Y004435D01*
X016445Y004594D02*
X024415Y004594D01*
X024573Y004752D02*
X016287Y004752D01*
X014860Y006179D02*
X026000Y006179D01*
X026158Y006337D02*
X014702Y006337D01*
X014543Y006496D02*
X026317Y006496D01*
X026475Y006654D02*
X014385Y006654D01*
X010422Y010617D02*
X030438Y010617D01*
X030596Y010775D02*
X010264Y010775D01*
X010105Y010934D02*
X030755Y010934D01*
X030913Y011092D02*
X009947Y011092D01*
X009788Y011251D02*
X031072Y011251D01*
X031230Y011409D02*
X009630Y011409D01*
X009471Y011568D02*
X031389Y011568D01*
X031547Y011726D02*
X009313Y011726D01*
X009154Y011885D02*
X031706Y011885D01*
X031864Y012043D02*
X008996Y012043D01*
X008837Y012202D02*
X032023Y012202D01*
X032181Y012360D02*
X008679Y012360D01*
X008520Y012519D02*
X032340Y012519D01*
X032498Y012677D02*
X025161Y012677D01*
X025246Y012712D02*
X025528Y012994D01*
X032815Y012994D01*
X032657Y012836D02*
X025370Y012836D01*
X025246Y012712D02*
X024879Y012560D01*
X024481Y012560D01*
X024114Y012712D01*
X023832Y012994D01*
X008045Y012994D01*
X008203Y012836D02*
X023990Y012836D01*
X023832Y012994D02*
X023680Y013361D01*
X023680Y013759D01*
X023832Y014126D01*
X024114Y014408D01*
X024481Y014560D01*
X024879Y014560D01*
X025246Y014408D01*
X025528Y014126D01*
X025680Y013759D01*
X025680Y013361D01*
X025528Y012994D01*
X025594Y013153D02*
X032974Y013153D01*
X033132Y013311D02*
X025659Y013311D01*
X025680Y013470D02*
X033291Y013470D01*
X033449Y013628D02*
X025680Y013628D01*
X025669Y013787D02*
X033608Y013787D01*
X033766Y013945D02*
X025603Y013945D01*
X025537Y014104D02*
X033925Y014104D01*
X034083Y014262D02*
X025392Y014262D01*
X025216Y014421D02*
X034242Y014421D01*
X034400Y014579D02*
X019598Y014579D01*
X019448Y014428D02*
X020133Y015113D01*
X020142Y015113D01*
X020414Y015226D01*
X020622Y015434D01*
X020735Y015706D01*
X020735Y016000D01*
X020622Y016272D01*
X020414Y016481D01*
X020142Y016593D01*
X019848Y016593D01*
X019576Y016481D01*
X019370Y016275D01*
X019164Y016481D01*
X018892Y016593D01*
X018598Y016593D01*
X018326Y016481D01*
X018118Y016272D01*
X018005Y016000D01*
X018005Y015706D01*
X018118Y015434D01*
X018326Y015226D01*
X018598Y015113D01*
X018892Y015113D01*
X019164Y015226D01*
X019370Y015432D01*
X019458Y015344D01*
X019134Y015020D01*
X017814Y015020D01*
X017814Y015062D01*
X017777Y015151D01*
X017710Y015218D01*
X017621Y015255D01*
X016817Y015255D01*
X016729Y015218D01*
X016662Y015151D01*
X016625Y015062D01*
X016625Y014337D01*
X016662Y014249D01*
X016729Y014181D01*
X016817Y014145D01*
X017621Y014145D01*
X017710Y014181D01*
X017777Y014249D01*
X017814Y014337D01*
X017814Y014380D01*
X019330Y014380D01*
X019448Y014428D01*
X019429Y014421D02*
X024144Y014421D01*
X023968Y014262D02*
X017783Y014262D01*
X017219Y014700D02*
X019267Y014700D01*
X019995Y015428D01*
X019995Y015853D01*
X019418Y016323D02*
X019322Y016323D01*
X019163Y016481D02*
X019577Y016481D01*
X019064Y017115D02*
X036936Y017115D01*
X036778Y016957D02*
X018905Y016957D01*
X018747Y016798D02*
X036619Y016798D01*
X036461Y016640D02*
X004399Y016640D01*
X004241Y016798D02*
X005574Y016798D01*
X005550Y016822D02*
X005640Y016732D01*
X005758Y016683D01*
X018563Y016683D01*
X018680Y016732D01*
X019334Y017385D01*
X019424Y017475D01*
X019472Y017593D01*
X019472Y019265D01*
X019604Y019397D01*
X019680Y019581D01*
X019680Y019779D01*
X019604Y019963D01*
X019463Y020104D01*
X019279Y020180D01*
X019463Y020256D01*
X019604Y020397D01*
X019680Y020581D01*
X019680Y020779D01*
X019604Y020963D01*
X019463Y021104D01*
X019279Y021180D01*
X019081Y021180D01*
X018897Y021104D01*
X018756Y020963D01*
X018718Y020871D01*
X018184Y020337D01*
X018094Y020247D01*
X018045Y020129D01*
X018045Y017994D01*
X017732Y017681D01*
X006379Y017681D01*
X006142Y017919D01*
X006142Y022414D01*
X006340Y022612D01*
X007222Y022612D01*
X007199Y022556D01*
X007199Y022304D01*
X007236Y022215D01*
X007271Y022180D01*
X007236Y022145D01*
X007199Y022056D01*
X007199Y021804D01*
X007236Y021715D01*
X007271Y021680D01*
X007236Y021645D01*
X007199Y021556D01*
X007199Y021304D01*
X007236Y021215D01*
X007271Y021180D01*
X007236Y021145D01*
X007199Y021056D01*
X007199Y020804D01*
X007236Y020715D01*
X007271Y020680D01*
X007236Y020645D01*
X007199Y020556D01*
X007199Y020304D01*
X007236Y020215D01*
X007271Y020180D01*
X007236Y020145D01*
X007199Y020056D01*
X007199Y019804D01*
X007236Y019715D01*
X007271Y019680D01*
X007236Y019645D01*
X007199Y019556D01*
X007199Y019304D01*
X007236Y019215D01*
X007271Y019180D01*
X007236Y019145D01*
X007199Y019056D01*
X007199Y018804D01*
X007236Y018715D01*
X007303Y018648D01*
X007392Y018611D01*
X008287Y018611D01*
X008375Y018648D01*
X008443Y018715D01*
X008479Y018804D01*
X008479Y019056D01*
X008443Y019145D01*
X008408Y019180D01*
X008443Y019215D01*
X008479Y019304D01*
X008479Y019556D01*
X008443Y019645D01*
X008408Y019680D01*
X008443Y019715D01*
X008479Y019804D01*
X008479Y020056D01*
X008443Y020145D01*
X008408Y020180D01*
X008443Y020215D01*
X008479Y020304D01*
X008479Y020556D01*
X008443Y020645D01*
X008408Y020680D01*
X008443Y020715D01*
X008479Y020804D01*
X008479Y021056D01*
X008443Y021145D01*
X008408Y021180D01*
X008443Y021215D01*
X008479Y021304D01*
X008479Y021556D01*
X008443Y021645D01*
X008408Y021680D01*
X008443Y021715D01*
X008479Y021804D01*
X008479Y022056D01*
X008443Y022145D01*
X008408Y022180D01*
X008443Y022215D01*
X008479Y022304D01*
X008479Y022556D01*
X008443Y022645D01*
X008408Y022680D01*
X008443Y022715D01*
X008479Y022804D01*
X008479Y023056D01*
X008443Y023145D01*
X008408Y023180D01*
X008443Y023215D01*
X008479Y023304D01*
X008479Y023556D01*
X008443Y023645D01*
X008408Y023680D01*
X008443Y023715D01*
X008479Y023804D01*
X008479Y024056D01*
X008443Y024145D01*
X008408Y024180D01*
X008443Y024215D01*
X008479Y024304D01*
X008479Y024556D01*
X008443Y024645D01*
X008408Y024680D01*
X008443Y024715D01*
X008479Y024804D01*
X008479Y025056D01*
X008443Y025145D01*
X008375Y025212D01*
X008287Y025249D01*
X007906Y025249D01*
X007903Y025250D01*
X007236Y025250D01*
X007227Y025270D01*
X007160Y025337D01*
X007072Y025374D01*
X006580Y025374D01*
X006492Y025337D01*
X006424Y025270D01*
X006388Y025182D01*
X006388Y024870D01*
X005962Y024870D01*
X005873Y024834D01*
X005806Y024766D01*
X005769Y024678D01*
X005769Y024359D01*
X005733Y024374D01*
X005241Y024374D01*
X005153Y024337D01*
X005086Y024270D01*
X005049Y024182D01*
X005049Y023690D01*
X005086Y023602D01*
X005153Y023534D01*
X005241Y023498D01*
X005565Y023498D01*
X005247Y023180D01*
X005157Y023090D01*
X005108Y022972D01*
X005108Y017333D01*
X005157Y017215D01*
X005550Y016822D01*
X005415Y016957D02*
X004082Y016957D01*
X003924Y017115D02*
X005257Y017115D01*
X005133Y017274D02*
X003765Y017274D01*
X003607Y017432D02*
X005108Y017432D01*
X005108Y017591D02*
X003448Y017591D01*
X003290Y017749D02*
X005108Y017749D01*
X005108Y017908D02*
X003131Y017908D01*
X002973Y018066D02*
X005108Y018066D01*
X005108Y018225D02*
X002814Y018225D01*
X002656Y018383D02*
X005108Y018383D01*
X005108Y018542D02*
X002497Y018542D01*
X002339Y018700D02*
X005108Y018700D01*
X005108Y018859D02*
X002180Y018859D01*
X002022Y019017D02*
X005108Y019017D01*
X005108Y019176D02*
X001863Y019176D01*
X001705Y019334D02*
X005108Y019334D01*
X005108Y019493D02*
X001546Y019493D01*
X001388Y019651D02*
X005108Y019651D01*
X005108Y019810D02*
X001229Y019810D01*
X001160Y019968D02*
X005108Y019968D01*
X005108Y020127D02*
X001160Y020127D01*
X001160Y020285D02*
X005108Y020285D01*
X005108Y020444D02*
X001160Y020444D01*
X001160Y020602D02*
X005108Y020602D01*
X005108Y020761D02*
X001160Y020761D01*
X001160Y020919D02*
X005108Y020919D01*
X005108Y021078D02*
X001160Y021078D01*
X001160Y021236D02*
X005108Y021236D01*
X005108Y021395D02*
X001160Y021395D01*
X001160Y021553D02*
X005108Y021553D01*
X005108Y021712D02*
X001160Y021712D01*
X001160Y021870D02*
X005108Y021870D01*
X005108Y022029D02*
X001160Y022029D01*
X001160Y022187D02*
X005108Y022187D01*
X005108Y022346D02*
X001160Y022346D01*
X001160Y022504D02*
X005108Y022504D01*
X005108Y022663D02*
X001160Y022663D01*
X001160Y022821D02*
X005108Y022821D01*
X005111Y022980D02*
X001160Y022980D01*
X001160Y023138D02*
X005205Y023138D01*
X005364Y023297D02*
X001160Y023297D01*
X001160Y023455D02*
X005522Y023455D01*
X005950Y023430D02*
X005428Y022908D01*
X005428Y017397D01*
X005822Y017003D01*
X018499Y017003D01*
X019152Y017656D01*
X019152Y019652D01*
X019180Y019680D01*
X019168Y019668D01*
X018692Y019810D02*
X018685Y019810D01*
X018685Y019792D02*
X018685Y019933D01*
X018975Y020224D01*
X019081Y020180D01*
X019279Y020180D01*
X019081Y020180D01*
X018897Y020104D01*
X018756Y019963D01*
X018685Y019792D01*
X018720Y019968D02*
X018761Y019968D01*
X018878Y020127D02*
X018951Y020127D01*
X019409Y020127D02*
X021951Y020127D01*
X021897Y020104D02*
X021756Y019963D01*
X021680Y019779D01*
X021680Y019581D01*
X021756Y019397D01*
X021897Y019256D01*
X022081Y019180D01*
X022279Y019180D01*
X022463Y019256D01*
X022604Y019397D01*
X022680Y019581D01*
X022680Y019779D01*
X022604Y019963D01*
X022463Y020104D01*
X022279Y020180D01*
X022463Y020256D01*
X022604Y020397D01*
X022680Y020581D01*
X022680Y020779D01*
X022604Y020963D01*
X022463Y021104D01*
X022279Y021180D01*
X022463Y021256D01*
X022604Y021397D01*
X022680Y021581D01*
X022680Y021779D01*
X022604Y021963D01*
X022463Y022104D01*
X022279Y022180D01*
X022463Y022256D01*
X022604Y022397D01*
X022680Y022581D01*
X022680Y022779D01*
X022604Y022963D01*
X022463Y023104D01*
X022279Y023180D01*
X022463Y023256D01*
X022604Y023397D01*
X022680Y023581D01*
X022680Y023779D01*
X022604Y023963D01*
X022463Y024104D01*
X022279Y024180D01*
X022463Y024256D01*
X022604Y024397D01*
X022680Y024581D01*
X022680Y024779D01*
X022604Y024963D01*
X022463Y025104D01*
X022279Y025180D01*
X022081Y025180D01*
X021897Y025104D01*
X021756Y024963D01*
X021680Y024779D01*
X021680Y024581D01*
X021756Y024397D01*
X021897Y024256D01*
X022081Y024180D01*
X022279Y024180D01*
X022081Y024180D01*
X021897Y024104D01*
X021756Y023963D01*
X021680Y023779D01*
X021680Y023581D01*
X021756Y023397D01*
X021897Y023256D01*
X022081Y023180D01*
X022279Y023180D01*
X022081Y023180D01*
X021897Y023104D01*
X021756Y022963D01*
X021680Y022779D01*
X021680Y022581D01*
X021756Y022397D01*
X021897Y022256D01*
X022081Y022180D01*
X022279Y022180D01*
X022081Y022180D01*
X021897Y022104D01*
X021756Y021963D01*
X021680Y021779D01*
X021680Y021581D01*
X021756Y021397D01*
X021897Y021256D01*
X022081Y021180D01*
X022279Y021180D01*
X022081Y021180D01*
X021897Y021104D01*
X021756Y020963D01*
X021680Y020779D01*
X021680Y020581D01*
X021756Y020397D01*
X021897Y020256D01*
X022081Y020180D01*
X022279Y020180D01*
X022081Y020180D01*
X021897Y020104D01*
X021868Y020285D02*
X019492Y020285D01*
X019623Y020444D02*
X021737Y020444D01*
X021680Y020602D02*
X019680Y020602D01*
X019680Y020761D02*
X021680Y020761D01*
X021738Y020919D02*
X019622Y020919D01*
X019490Y021078D02*
X021870Y021078D01*
X021945Y021236D02*
X019415Y021236D01*
X019463Y021256D02*
X019604Y021397D01*
X019680Y021581D01*
X019680Y021779D01*
X019604Y021963D01*
X019463Y022104D01*
X019279Y022180D01*
X019081Y022180D01*
X018897Y022104D01*
X018756Y021963D01*
X018680Y021779D01*
X018680Y021581D01*
X018756Y021397D01*
X018897Y021256D01*
X019081Y021180D01*
X019279Y021180D01*
X019463Y021256D01*
X019602Y021395D02*
X021758Y021395D01*
X021691Y021553D02*
X019669Y021553D01*
X019680Y021712D02*
X021680Y021712D01*
X021718Y021870D02*
X019642Y021870D01*
X019539Y022029D02*
X021821Y022029D01*
X022064Y022187D02*
X019296Y022187D01*
X019279Y022180D02*
X019463Y022256D01*
X019604Y022397D01*
X019680Y022581D01*
X019680Y022779D01*
X019604Y022963D01*
X019463Y023104D01*
X019279Y023180D01*
X019081Y023180D01*
X018897Y023104D01*
X018756Y022963D01*
X018680Y022779D01*
X018680Y022581D01*
X018756Y022397D01*
X018897Y022256D01*
X019081Y022180D01*
X019279Y022180D01*
X019064Y022187D02*
X013672Y022187D01*
X013673Y022190D02*
X013673Y022486D01*
X014138Y022486D01*
X014227Y022523D01*
X014294Y022590D01*
X014331Y022678D01*
X014331Y022748D01*
X014331Y022749D01*
X014333Y022754D01*
X014337Y022758D01*
X014358Y022813D01*
X014380Y022866D01*
X014380Y022872D01*
X014382Y022878D01*
X014380Y022936D01*
X014380Y022994D01*
X014378Y022999D01*
X014377Y023005D01*
X014353Y023058D01*
X014331Y023111D01*
X014331Y023112D01*
X014331Y023170D01*
X014294Y023258D01*
X014227Y023326D01*
X014138Y023362D01*
X013673Y023362D01*
X013673Y023682D01*
X013637Y023770D01*
X013569Y023837D01*
X013481Y023874D01*
X013012Y023874D01*
X013012Y024110D01*
X014494Y024110D01*
X014611Y024159D01*
X014701Y024249D01*
X017765Y027313D01*
X029311Y027313D01*
X029580Y027044D01*
X029580Y025780D01*
X029487Y025780D01*
X029487Y025806D01*
X029450Y025895D01*
X029383Y025962D01*
X029295Y025999D01*
X028884Y025999D01*
X028796Y025962D01*
X028735Y025901D01*
X028674Y025962D01*
X028586Y025999D01*
X028176Y025999D01*
X028087Y025962D01*
X028030Y025905D01*
X028006Y025928D01*
X027918Y025965D01*
X027426Y025965D01*
X027338Y025928D01*
X027271Y025861D01*
X027234Y025772D01*
X027234Y025281D01*
X027271Y025192D01*
X027338Y025125D01*
X027426Y025088D01*
X027918Y025088D01*
X028006Y025125D01*
X028026Y025144D01*
X028087Y025083D01*
X028176Y025046D01*
X028586Y025046D01*
X028674Y025083D01*
X028735Y025144D01*
X028796Y025083D01*
X028884Y025046D01*
X029270Y025046D01*
X029270Y024772D01*
X029307Y024684D01*
X029311Y024680D01*
X029307Y024676D01*
X029270Y024588D01*
X029270Y024272D01*
X029307Y024184D01*
X029311Y024180D01*
X029307Y024176D01*
X029270Y024088D01*
X029270Y023772D01*
X025593Y023772D01*
X025528Y023614D02*
X025680Y023981D01*
X025680Y024379D01*
X025528Y024746D01*
X025246Y025028D01*
X024879Y025180D01*
X024481Y025180D01*
X024114Y025028D01*
X023832Y024746D01*
X023680Y024379D01*
X023680Y023981D01*
X023832Y023614D01*
X024114Y023332D01*
X024481Y023180D01*
X024879Y023180D01*
X025246Y023332D01*
X025528Y023614D01*
X028166Y023614D01*
X028142Y023604D02*
X028075Y023536D01*
X028038Y023448D01*
X028038Y022723D01*
X028075Y022635D01*
X028142Y022567D01*
X028231Y022531D01*
X029035Y022531D01*
X029123Y022567D01*
X029166Y022610D01*
X029279Y022610D01*
X029270Y022588D01*
X029270Y022272D01*
X029307Y022184D01*
X029311Y022180D01*
X029307Y022176D01*
X029270Y022088D01*
X029270Y021772D01*
X029307Y021684D01*
X029311Y021680D01*
X029307Y021676D01*
X029270Y021588D01*
X029270Y021272D01*
X029307Y021184D01*
X029311Y021180D01*
X029307Y021176D01*
X029270Y021088D01*
X029270Y020772D01*
X029307Y020684D01*
X029311Y020680D01*
X029307Y020676D01*
X029270Y020588D01*
X029270Y020272D01*
X029307Y020184D01*
X029311Y020180D01*
X029307Y020176D01*
X029270Y020088D01*
X029270Y019772D01*
X029307Y019684D01*
X029374Y019617D01*
X029462Y019580D01*
X030338Y019580D01*
X030426Y019617D01*
X030493Y019684D01*
X030530Y019772D01*
X030530Y020088D01*
X030493Y020176D01*
X030489Y020180D01*
X030493Y020184D01*
X030530Y020272D01*
X030530Y020588D01*
X030493Y020676D01*
X030489Y020680D01*
X030493Y020684D01*
X030530Y020772D01*
X030530Y021088D01*
X030493Y021176D01*
X030489Y021180D01*
X030493Y021184D01*
X030530Y021272D01*
X030530Y021588D01*
X030493Y021676D01*
X030489Y021680D01*
X030493Y021684D01*
X030530Y021772D01*
X030530Y022088D01*
X030493Y022176D01*
X030489Y022180D01*
X030493Y022184D01*
X030530Y022272D01*
X030530Y022588D01*
X030493Y022676D01*
X030489Y022680D01*
X030493Y022684D01*
X030530Y022772D01*
X030530Y023088D01*
X030493Y023176D01*
X030426Y023243D01*
X030338Y023280D01*
X029462Y023280D01*
X029390Y023250D01*
X029227Y023250D01*
X029227Y023448D01*
X029191Y023536D01*
X029123Y023604D01*
X029035Y023640D01*
X028231Y023640D01*
X028142Y023604D01*
X028041Y023455D02*
X025369Y023455D01*
X025160Y023297D02*
X028038Y023297D01*
X028038Y023138D02*
X022381Y023138D01*
X022504Y023297D02*
X024200Y023297D01*
X023991Y023455D02*
X022628Y023455D01*
X022680Y023614D02*
X023832Y023614D01*
X023767Y023772D02*
X022680Y023772D01*
X022617Y023931D02*
X023701Y023931D01*
X023680Y024089D02*
X022478Y024089D01*
X022443Y024248D02*
X023680Y024248D01*
X023691Y024406D02*
X022608Y024406D01*
X022673Y024565D02*
X023757Y024565D01*
X023823Y024723D02*
X022680Y024723D01*
X022638Y024882D02*
X023967Y024882D01*
X024143Y025040D02*
X022527Y025040D01*
X021833Y025040D02*
X019527Y025040D01*
X019463Y025104D02*
X019604Y024963D01*
X019680Y024779D01*
X019680Y024581D01*
X019604Y024397D01*
X019463Y024256D01*
X019279Y024180D01*
X019081Y024180D01*
X018897Y024104D01*
X018756Y023963D01*
X018680Y023779D01*
X018680Y023581D01*
X018756Y023397D01*
X018897Y023256D01*
X019081Y023180D01*
X019279Y023180D01*
X019463Y023256D01*
X019604Y023397D01*
X019680Y023581D01*
X019680Y023779D01*
X019604Y023963D01*
X019463Y024104D01*
X019279Y024180D01*
X019081Y024180D01*
X018897Y024256D01*
X018756Y024397D01*
X018680Y024581D01*
X018680Y024779D01*
X018756Y024963D01*
X018897Y025104D01*
X019081Y025180D01*
X019279Y025180D01*
X019463Y025104D01*
X019638Y024882D02*
X021722Y024882D01*
X021680Y024723D02*
X019680Y024723D01*
X019673Y024565D02*
X021687Y024565D01*
X021752Y024406D02*
X019608Y024406D01*
X019443Y024248D02*
X021917Y024248D01*
X021882Y024089D02*
X019478Y024089D01*
X019617Y023931D02*
X021743Y023931D01*
X021680Y023772D02*
X019680Y023772D01*
X019680Y023614D02*
X021680Y023614D01*
X021732Y023455D02*
X019628Y023455D01*
X019504Y023297D02*
X021856Y023297D01*
X021979Y023138D02*
X019381Y023138D01*
X019588Y022980D02*
X021772Y022980D01*
X021697Y022821D02*
X019663Y022821D01*
X019680Y022663D02*
X021680Y022663D01*
X021712Y022504D02*
X019648Y022504D01*
X019553Y022346D02*
X021807Y022346D01*
X022296Y022187D02*
X029305Y022187D01*
X029270Y022029D02*
X022539Y022029D01*
X022642Y021870D02*
X029270Y021870D01*
X029295Y021712D02*
X022680Y021712D01*
X022669Y021553D02*
X029270Y021553D01*
X029270Y021395D02*
X022602Y021395D01*
X022415Y021236D02*
X029285Y021236D01*
X029270Y021078D02*
X022490Y021078D01*
X022622Y020919D02*
X029270Y020919D01*
X029275Y020761D02*
X022680Y020761D01*
X022680Y020602D02*
X029276Y020602D01*
X029270Y020444D02*
X022623Y020444D01*
X022492Y020285D02*
X029270Y020285D01*
X029286Y020127D02*
X022409Y020127D01*
X022599Y019968D02*
X029270Y019968D01*
X029270Y019810D02*
X022668Y019810D01*
X022680Y019651D02*
X028201Y019651D01*
X028182Y019643D02*
X028270Y019680D01*
X029074Y019680D01*
X029162Y019643D01*
X029230Y019576D01*
X029266Y019488D01*
X029266Y019250D01*
X029390Y019250D01*
X029462Y019280D01*
X030338Y019280D01*
X030426Y019243D01*
X030493Y019176D01*
X030530Y019088D01*
X030530Y018772D01*
X030493Y018684D01*
X030426Y018617D01*
X030338Y018580D01*
X030220Y018580D01*
X030220Y018382D01*
X030223Y018381D01*
X030290Y018313D01*
X030327Y018225D01*
X030327Y017733D01*
X030290Y017645D01*
X030223Y017578D01*
X030135Y017541D01*
X029643Y017541D01*
X029555Y017578D01*
X029487Y017645D01*
X029451Y017733D01*
X029451Y018225D01*
X029487Y018313D01*
X029555Y018381D01*
X029580Y018391D01*
X029580Y018580D01*
X029462Y018580D01*
X029390Y018610D01*
X029166Y018610D01*
X029162Y018606D01*
X029074Y018570D01*
X028270Y018570D01*
X028182Y018606D01*
X028114Y018674D01*
X028078Y018762D01*
X028078Y019488D01*
X028114Y019576D01*
X028182Y019643D01*
X028080Y019493D02*
X022644Y019493D01*
X022541Y019334D02*
X028078Y019334D01*
X028078Y019176D02*
X019472Y019176D01*
X019472Y019017D02*
X028078Y019017D01*
X028078Y018859D02*
X019472Y018859D01*
X019472Y018700D02*
X028104Y018700D01*
X028672Y019125D02*
X028867Y018930D01*
X029900Y018930D01*
X029900Y017991D01*
X029889Y017979D01*
X030327Y017908D02*
X037729Y017908D01*
X037887Y018066D02*
X030327Y018066D01*
X030327Y018225D02*
X038046Y018225D01*
X038204Y018383D02*
X030220Y018383D01*
X030220Y018542D02*
X038363Y018542D01*
X038521Y018700D02*
X036318Y018700D01*
X036277Y018659D02*
X037105Y019487D01*
X037195Y019577D01*
X037244Y019695D01*
X037244Y020244D01*
X037292Y020264D01*
X037360Y020331D01*
X037396Y020420D01*
X037396Y020649D01*
X037608Y020860D01*
X038209Y020860D01*
X038219Y020834D01*
X038391Y020663D01*
X038615Y020570D01*
X038858Y020570D01*
X039082Y020663D01*
X039253Y020834D01*
X039346Y021059D01*
X039346Y021301D01*
X039253Y021526D01*
X039135Y021644D01*
X039182Y021663D01*
X039353Y021834D01*
X039446Y022059D01*
X039446Y022301D01*
X039353Y022526D01*
X039182Y022697D01*
X038958Y022790D01*
X038715Y022790D01*
X038491Y022697D01*
X038319Y022526D01*
X038226Y022301D01*
X038226Y022059D01*
X038319Y021834D01*
X038437Y021716D01*
X038391Y021697D01*
X038219Y021526D01*
X038209Y021500D01*
X037412Y021500D01*
X037396Y021494D01*
X037396Y021539D01*
X037384Y021568D01*
X037406Y021620D01*
X037406Y022031D01*
X037370Y022119D01*
X037309Y022180D01*
X037370Y022241D01*
X037406Y022329D01*
X037406Y022740D01*
X037370Y022828D01*
X037302Y022895D01*
X037292Y022899D01*
X037353Y022960D01*
X037390Y023048D01*
X037390Y023540D01*
X037353Y023628D01*
X037286Y023696D01*
X037198Y023732D01*
X036706Y023732D01*
X036618Y023696D01*
X036550Y023628D01*
X036514Y023540D01*
X036514Y023048D01*
X036550Y022960D01*
X036598Y022912D01*
X036558Y022895D01*
X036490Y022828D01*
X036454Y022740D01*
X036454Y022329D01*
X036490Y022241D01*
X036551Y022180D01*
X036490Y022119D01*
X036454Y022031D01*
X036454Y021654D01*
X036351Y021654D01*
X036233Y021605D01*
X036135Y021507D01*
X035630Y021507D01*
X035542Y021470D01*
X035475Y021403D01*
X035438Y021314D01*
X035438Y020589D01*
X035475Y020501D01*
X035542Y020433D01*
X035630Y020397D01*
X036434Y020397D01*
X036451Y020403D01*
X036480Y020331D01*
X036548Y020264D01*
X036604Y020241D01*
X036604Y019891D01*
X035963Y019250D01*
X034081Y019250D01*
X034090Y019272D01*
X034090Y019588D01*
X034053Y019676D01*
X034049Y019680D01*
X034053Y019684D01*
X034090Y019772D01*
X034090Y020088D01*
X034081Y020110D01*
X034903Y020110D01*
X035021Y020159D01*
X035137Y020275D01*
X035227Y020365D01*
X035276Y020482D01*
X035276Y023071D01*
X036061Y023856D01*
X038310Y023856D01*
X038319Y023834D01*
X038491Y023663D01*
X038715Y023570D01*
X038958Y023570D01*
X039182Y023663D01*
X039353Y023834D01*
X039446Y024059D01*
X039446Y024301D01*
X039353Y024526D01*
X039182Y024697D01*
X039135Y024716D01*
X039253Y024834D01*
X039346Y025059D01*
X039346Y025301D01*
X039253Y025526D01*
X039135Y025644D01*
X039182Y025663D01*
X039353Y025834D01*
X039446Y026059D01*
X039446Y026301D01*
X039353Y026526D01*
X039182Y026697D01*
X038958Y026790D01*
X038715Y026790D01*
X038491Y026697D01*
X038319Y026526D01*
X038226Y026301D01*
X038226Y026059D01*
X038319Y025834D01*
X038437Y025716D01*
X038391Y025697D01*
X038219Y025526D01*
X038207Y025496D01*
X035971Y025496D01*
X035853Y025447D01*
X035763Y025357D01*
X035762Y025357D01*
X035763Y025357D02*
X035761Y025356D01*
X035787Y025418D01*
X035787Y025910D01*
X035751Y025998D01*
X035683Y026066D01*
X035595Y026102D01*
X035103Y026102D01*
X035015Y026066D01*
X034948Y025998D01*
X034911Y025910D01*
X034911Y025679D01*
X034854Y025621D01*
X034828Y025647D01*
X034740Y025684D01*
X034046Y025684D01*
X033986Y025743D01*
X033898Y025780D01*
X033780Y025780D01*
X033780Y026830D01*
X033731Y026947D01*
X032471Y028208D01*
X032381Y028298D01*
X032263Y028346D01*
X018459Y028346D01*
X018459Y029200D01*
X018422Y029288D01*
X018355Y029355D01*
X018267Y029392D01*
X017361Y029392D01*
X017273Y029355D01*
X017205Y029288D01*
X017169Y029200D01*
X017169Y028344D01*
X017058Y028298D01*
X014010Y025250D01*
X012138Y025250D01*
X012161Y025304D01*
X012161Y025556D01*
X012131Y025628D01*
X012202Y025658D01*
X012269Y025725D01*
X012306Y025813D01*
X012306Y026618D01*
X012269Y026706D01*
X012202Y026773D01*
X012114Y026810D01*
X012071Y026810D01*
X012071Y027086D01*
X012089Y027093D01*
X012156Y027161D01*
X012193Y027249D01*
X012193Y027741D01*
X012156Y027829D01*
X012089Y027897D01*
X012001Y027933D01*
X011509Y027933D01*
X011421Y027897D01*
X011353Y027829D01*
X011317Y027741D01*
X011317Y027249D01*
X011353Y027161D01*
X011421Y027093D01*
X011431Y027089D01*
X011431Y026810D01*
X011388Y026810D01*
X011300Y026773D01*
X011232Y026706D01*
X011196Y026618D01*
X011196Y025813D01*
X011201Y025802D01*
X011201Y025749D01*
X011073Y025749D01*
X010985Y025712D01*
X010917Y025645D01*
X010881Y025556D01*
X010881Y025304D01*
X010917Y025215D01*
X010952Y025180D01*
X010917Y025145D01*
X010881Y025056D01*
X010881Y024804D01*
X010917Y024715D01*
X010952Y024680D01*
X010917Y024645D01*
X010881Y024556D01*
X010881Y024304D01*
X010917Y024215D01*
X010952Y024180D01*
X010917Y024145D01*
X010881Y024056D01*
X010881Y023804D01*
X010917Y023715D01*
X010952Y023680D01*
X010917Y023645D01*
X010881Y023556D01*
X010881Y023304D01*
X010917Y023215D01*
X010952Y023180D01*
X010917Y023145D01*
X010881Y023056D01*
X010881Y022804D01*
X010917Y022715D01*
X010952Y022680D01*
X010917Y022645D01*
X010881Y022556D01*
X010881Y022304D01*
X010917Y022215D01*
X010952Y022180D01*
X010917Y022145D01*
X010881Y022056D01*
X010881Y021804D01*
X010917Y021715D01*
X010952Y021680D01*
X010917Y021645D01*
X010881Y021556D01*
X010881Y021304D01*
X010917Y021215D01*
X010952Y021180D01*
X010917Y021145D01*
X010881Y021056D01*
X010881Y020804D01*
X010917Y020715D01*
X010952Y020680D01*
X010917Y020645D01*
X010881Y020556D01*
X010881Y020304D01*
X010917Y020215D01*
X010952Y020180D01*
X010917Y020145D01*
X010881Y020056D01*
X010881Y019804D01*
X010917Y019715D01*
X010952Y019680D01*
X010917Y019645D01*
X010881Y019556D01*
X010881Y019304D01*
X010917Y019215D01*
X010952Y019180D01*
X010917Y019145D01*
X010881Y019056D01*
X010881Y018804D01*
X010917Y018715D01*
X010985Y018648D01*
X011073Y018611D01*
X011968Y018611D01*
X012056Y018648D01*
X012124Y018715D01*
X012161Y018804D01*
X012161Y019056D01*
X012124Y019145D01*
X012089Y019180D01*
X012124Y019215D01*
X012161Y019304D01*
X012161Y019556D01*
X012124Y019645D01*
X012089Y019680D01*
X012124Y019715D01*
X012161Y019804D01*
X012161Y020056D01*
X012124Y020145D01*
X012089Y020180D01*
X012124Y020215D01*
X012161Y020304D01*
X012161Y020556D01*
X012138Y020610D01*
X013508Y020610D01*
X013523Y020574D01*
X013590Y020507D01*
X013678Y020470D01*
X014170Y020470D01*
X014258Y020507D01*
X014326Y020574D01*
X014362Y020662D01*
X014362Y020779D01*
X014370Y020789D01*
X014380Y020829D01*
X014396Y020866D01*
X014396Y020890D01*
X014401Y020912D01*
X014396Y020953D01*
X014396Y020994D01*
X014387Y021015D01*
X014383Y021038D01*
X014363Y021073D01*
X014362Y021074D01*
X014362Y021154D01*
X014326Y021242D01*
X014258Y021310D01*
X014170Y021346D01*
X013678Y021346D01*
X013673Y021344D01*
X013673Y021674D01*
X013637Y021762D01*
X013569Y021830D01*
X013481Y021866D01*
X013012Y021866D01*
X013012Y021998D01*
X013481Y021998D01*
X013569Y022034D01*
X013637Y022102D01*
X013673Y022190D01*
X013673Y022346D02*
X018807Y022346D01*
X018712Y022504D02*
X014182Y022504D01*
X014324Y022663D02*
X018680Y022663D01*
X018697Y022821D02*
X014361Y022821D01*
X014380Y022980D02*
X018772Y022980D01*
X018979Y023138D02*
X014331Y023138D01*
X014256Y023297D02*
X018856Y023297D01*
X018732Y023455D02*
X013673Y023455D01*
X013673Y023614D02*
X018680Y023614D01*
X018680Y023772D02*
X013635Y023772D01*
X013235Y023436D02*
X013229Y023430D01*
X011521Y023430D01*
X011521Y023930D02*
X012568Y023930D01*
X012574Y023936D01*
X013012Y023931D02*
X018743Y023931D01*
X018882Y024089D02*
X013012Y024089D01*
X014143Y024930D02*
X011521Y024930D01*
X011521Y024430D02*
X014430Y024430D01*
X017633Y027633D01*
X029444Y027633D01*
X029900Y027177D01*
X029900Y025430D01*
X029182Y025430D01*
X029089Y025523D01*
X029476Y025833D02*
X029580Y025833D01*
X029580Y025991D02*
X029313Y025991D01*
X029580Y026150D02*
X016602Y026150D01*
X016761Y026308D02*
X029580Y026308D01*
X029580Y026467D02*
X016919Y026467D01*
X017078Y026625D02*
X029580Y026625D01*
X029580Y026784D02*
X017236Y026784D01*
X017395Y026942D02*
X029580Y026942D01*
X029523Y027101D02*
X017553Y027101D01*
X017712Y027259D02*
X029365Y027259D01*
X029823Y027706D02*
X032067Y027706D01*
X033140Y026634D01*
X033140Y026628D01*
X033090Y026648D01*
X032680Y026648D01*
X032591Y026612D01*
X032530Y026551D01*
X032469Y026612D01*
X032381Y026648D01*
X031971Y026648D01*
X031883Y026612D01*
X031815Y026544D01*
X031794Y026492D01*
X031693Y026492D01*
X031684Y026514D01*
X031616Y026582D01*
X031528Y026618D01*
X031037Y026618D01*
X030948Y026582D01*
X030881Y026514D01*
X030844Y026426D01*
X030844Y025934D01*
X030881Y025846D01*
X030948Y025778D01*
X031037Y025742D01*
X031528Y025742D01*
X031616Y025778D01*
X031684Y025846D01*
X031686Y025852D01*
X031794Y025852D01*
X031815Y025800D01*
X031883Y025732D01*
X031971Y025696D01*
X032381Y025696D01*
X032469Y025732D01*
X032530Y025793D01*
X032591Y025732D01*
X032680Y025696D01*
X032886Y025696D01*
X032867Y025676D01*
X032830Y025588D01*
X032830Y025272D01*
X032867Y025184D01*
X032871Y025180D01*
X032867Y025176D01*
X032830Y025088D01*
X032830Y024772D01*
X032867Y024684D01*
X032871Y024680D01*
X032867Y024676D01*
X032830Y024588D01*
X032830Y024272D01*
X032867Y024184D01*
X032871Y024180D01*
X032867Y024176D01*
X032830Y024088D01*
X032830Y023772D01*
X030530Y023772D01*
X030530Y024088D01*
X030493Y024176D01*
X030489Y024180D01*
X030493Y024184D01*
X030530Y024272D01*
X030530Y024588D01*
X030493Y024676D01*
X030489Y024680D01*
X030493Y024684D01*
X030530Y024772D01*
X030530Y025088D01*
X030493Y025176D01*
X030489Y025180D01*
X030493Y025184D01*
X030530Y025272D01*
X030530Y025588D01*
X030493Y025676D01*
X030426Y025743D01*
X030338Y025780D01*
X030220Y025780D01*
X030220Y027240D01*
X030171Y027358D01*
X029823Y027706D01*
X029953Y027576D02*
X032198Y027576D01*
X032356Y027418D02*
X030112Y027418D01*
X030212Y027259D02*
X032515Y027259D01*
X032673Y027101D02*
X030220Y027101D01*
X030220Y026942D02*
X032832Y026942D01*
X032990Y026784D02*
X030220Y026784D01*
X030220Y026625D02*
X031915Y026625D01*
X032438Y026625D02*
X032623Y026625D01*
X032885Y026172D02*
X033346Y026172D01*
X033460Y026058D01*
X033460Y026766D01*
X032200Y028026D01*
X017239Y028026D01*
X014143Y024930D01*
X014117Y025357D02*
X012161Y025357D01*
X012161Y025516D02*
X014276Y025516D01*
X014434Y025674D02*
X012218Y025674D01*
X012306Y025833D02*
X014593Y025833D01*
X014751Y025991D02*
X012306Y025991D01*
X012306Y026150D02*
X014910Y026150D01*
X015068Y026308D02*
X012306Y026308D01*
X012306Y026467D02*
X015227Y026467D01*
X015385Y026625D02*
X012303Y026625D01*
X012177Y026784D02*
X015544Y026784D01*
X015702Y026942D02*
X012071Y026942D01*
X012096Y027101D02*
X015861Y027101D01*
X016019Y027259D02*
X012193Y027259D01*
X012193Y027418D02*
X016178Y027418D01*
X016336Y027576D02*
X012193Y027576D01*
X012193Y027735D02*
X016495Y027735D01*
X016653Y027893D02*
X012092Y027893D01*
X011755Y027495D02*
X011751Y027491D01*
X011751Y026215D01*
X011521Y025985D01*
X011521Y025430D01*
X011196Y025833D02*
X001160Y025833D01*
X001160Y025991D02*
X011196Y025991D01*
X011196Y026150D02*
X001160Y026150D01*
X001160Y026308D02*
X011196Y026308D01*
X011196Y026467D02*
X001160Y026467D01*
X001160Y026625D02*
X011199Y026625D01*
X011325Y026784D02*
X001160Y026784D01*
X001160Y026942D02*
X011431Y026942D01*
X011414Y027101D02*
X001160Y027101D01*
X001160Y027259D02*
X011317Y027259D01*
X011317Y027418D02*
X001160Y027418D01*
X001255Y027576D02*
X011317Y027576D01*
X011317Y027735D02*
X001413Y027735D01*
X001572Y027893D02*
X011417Y027893D01*
X011620Y029361D02*
X010893Y029361D01*
X010757Y029418D01*
X010362Y029812D01*
X010306Y029948D01*
X010306Y030095D01*
X010362Y030231D01*
X010443Y030312D01*
X010424Y030331D01*
X010378Y030371D01*
X010372Y030383D01*
X010362Y030392D01*
X010339Y030448D01*
X010312Y030502D01*
X010311Y030516D01*
X010306Y030528D01*
X010306Y030589D01*
X010302Y030649D01*
X010306Y030662D01*
X010306Y031546D01*
X010362Y031682D01*
X010467Y031786D01*
X010603Y031843D01*
X010657Y031843D01*
X010651Y031852D01*
X010594Y032174D01*
X010591Y032177D01*
X010578Y032119D01*
X010470Y031964D01*
X010470Y031964D01*
X010392Y031854D01*
X010278Y031781D01*
X010265Y031779D01*
X010150Y031758D01*
X010122Y031632D01*
X010044Y031521D01*
X009930Y031448D01*
X009797Y031425D01*
X009665Y031454D01*
X009554Y031532D01*
X009481Y031646D01*
X009474Y031687D01*
X009371Y031621D01*
X009358Y031619D01*
X009243Y031598D01*
X009215Y031472D01*
X009137Y031361D01*
X009023Y031289D01*
X008890Y031265D01*
X008758Y031294D01*
X008757Y031295D01*
X008756Y031294D01*
X008642Y031221D01*
X008509Y031198D01*
X008377Y031227D01*
X008291Y031287D01*
X008230Y031201D01*
X008116Y031129D01*
X007983Y031105D01*
X007851Y031134D01*
X007850Y031135D01*
X007849Y031134D01*
X007735Y031062D01*
X007602Y031038D01*
X007470Y031067D01*
X007384Y031128D01*
X007324Y031041D01*
X007210Y030969D01*
X007076Y030945D01*
X006944Y030975D01*
X006834Y031052D01*
X006761Y031166D01*
X006682Y031615D01*
X006668Y031694D01*
X006598Y032088D01*
X006628Y032220D01*
X006705Y032331D01*
X006819Y032404D01*
X006952Y032427D01*
X007085Y032398D01*
X007171Y032337D01*
X007231Y032424D01*
X007345Y032496D01*
X007478Y032520D01*
X007610Y032490D01*
X007721Y032413D01*
X007753Y032363D01*
X007797Y032426D01*
X007797Y032426D01*
X007875Y032537D01*
X007989Y032610D01*
X008122Y032633D01*
X008254Y032604D01*
X008428Y032482D01*
X008441Y032540D01*
X008519Y032651D01*
X008633Y032723D01*
X008646Y032726D01*
X008766Y032747D01*
X009027Y032793D01*
X009160Y032816D01*
X009160Y032816D01*
X009292Y032787D01*
X009367Y032735D01*
X009371Y032732D01*
X009426Y032811D01*
X009540Y032883D01*
X009553Y032886D01*
X009673Y032907D01*
X009934Y032953D01*
X010067Y032976D01*
X010067Y032976D01*
X010199Y032947D01*
X010274Y032895D01*
X010278Y032892D01*
X010332Y032970D01*
X010446Y033043D01*
X010580Y033067D01*
X010712Y033037D01*
X010798Y032977D01*
X010858Y033063D01*
X010972Y033136D01*
X011105Y033159D01*
X011237Y033130D01*
X011348Y033052D01*
X011421Y032938D01*
X011468Y032674D01*
X011468Y032674D01*
X011440Y032548D01*
X011438Y032542D01*
X011430Y032530D01*
X011264Y032292D01*
X011321Y031970D01*
X011292Y031843D01*
X011911Y031843D01*
X012047Y031786D01*
X012151Y031682D01*
X012207Y031546D01*
X012207Y031399D01*
X012204Y031392D01*
X012494Y031682D01*
X012598Y031786D01*
X012734Y031843D01*
X013462Y031843D01*
X013598Y031786D01*
X013702Y031682D01*
X013702Y031682D01*
X013888Y031496D01*
X013888Y031496D01*
X013992Y031392D01*
X014035Y031290D01*
X014049Y031256D01*
X014049Y031105D01*
X014150Y031206D01*
X014281Y031260D01*
X014336Y031392D01*
X014440Y031496D01*
X014576Y031552D01*
X014723Y031552D01*
X014859Y031496D01*
X014963Y031392D01*
X015018Y031260D01*
X015149Y031206D01*
X015217Y031138D01*
X015217Y031546D01*
X015273Y031682D01*
X015377Y031786D01*
X015513Y031843D01*
X015661Y031843D01*
X015797Y031786D01*
X015901Y031682D01*
X015957Y031546D01*
X015957Y031262D01*
X016531Y031262D01*
X016667Y031206D01*
X016958Y030916D01*
X017062Y030812D01*
X017118Y030676D01*
X017118Y029658D01*
X017062Y029522D01*
X016958Y029418D01*
X016822Y029361D01*
X016674Y029361D01*
X016538Y029418D01*
X016434Y029522D01*
X016378Y029658D01*
X016378Y030449D01*
X016304Y030522D01*
X016031Y030522D01*
X015957Y030449D01*
X015957Y029658D01*
X015901Y029522D01*
X015797Y029418D01*
X015661Y029361D01*
X015513Y029361D01*
X015377Y029418D01*
X015273Y029522D01*
X015263Y029546D01*
X015253Y029522D01*
X015149Y029418D01*
X015013Y029361D01*
X014866Y029361D01*
X014730Y029418D01*
X014440Y029708D01*
X014440Y029708D01*
X014336Y029812D01*
X014297Y029907D01*
X014280Y029948D01*
X014280Y030525D01*
X014150Y030579D01*
X014049Y030680D01*
X014049Y029948D01*
X014032Y029907D01*
X013992Y029812D01*
X013888Y029708D01*
X013888Y029708D01*
X013702Y029522D01*
X013702Y029522D01*
X013598Y029418D01*
X013462Y029361D01*
X012734Y029361D01*
X012598Y029418D01*
X012308Y029708D01*
X012204Y029812D01*
X012177Y029876D01*
X012151Y029812D01*
X012047Y029708D01*
X012047Y029708D01*
X011861Y029522D01*
X011861Y029522D01*
X011756Y029418D01*
X011620Y029361D01*
X011817Y029478D02*
X012538Y029478D01*
X012379Y029637D02*
X011975Y029637D01*
X012134Y029795D02*
X012221Y029795D01*
X010696Y029478D02*
X003157Y029478D01*
X003315Y029637D02*
X010538Y029637D01*
X010379Y029795D02*
X003474Y029795D01*
X003632Y029954D02*
X010306Y029954D01*
X010313Y030112D02*
X003791Y030112D01*
X003949Y030271D02*
X010402Y030271D01*
X010347Y030429D02*
X004108Y030429D01*
X004266Y030588D02*
X010306Y030588D01*
X010306Y030746D02*
X004425Y030746D01*
X004583Y030905D02*
X010306Y030905D01*
X010306Y031063D02*
X007738Y031063D01*
X007489Y031063D02*
X007339Y031063D01*
X006827Y031063D02*
X004742Y031063D01*
X004900Y031222D02*
X006751Y031222D01*
X006723Y031380D02*
X005059Y031380D01*
X005217Y031539D02*
X006695Y031539D01*
X006667Y031697D02*
X005376Y031697D01*
X005534Y031856D02*
X006639Y031856D01*
X006611Y032014D02*
X005693Y032014D01*
X005851Y032173D02*
X006617Y032173D01*
X006706Y032331D02*
X006010Y032331D01*
X006168Y032490D02*
X007335Y032490D01*
X007611Y032490D02*
X007842Y032490D01*
X008418Y032490D02*
X008430Y032490D01*
X008517Y032648D02*
X006327Y032648D01*
X006485Y032807D02*
X009105Y032807D01*
X009204Y032807D02*
X009423Y032807D01*
X010004Y032965D02*
X006644Y032965D01*
X006802Y033124D02*
X010953Y033124D01*
X011247Y033124D02*
X016808Y033124D01*
X016966Y032965D02*
X011404Y032965D01*
X011444Y032807D02*
X017125Y032807D01*
X017283Y032648D02*
X011462Y032648D01*
X011402Y032490D02*
X017442Y032490D01*
X017600Y032331D02*
X011291Y032331D01*
X011285Y032173D02*
X017759Y032173D01*
X017917Y032014D02*
X011313Y032014D01*
X011295Y031856D02*
X018076Y031856D01*
X018234Y031697D02*
X015886Y031697D01*
X015957Y031539D02*
X018393Y031539D01*
X018551Y031380D02*
X015957Y031380D01*
X016630Y031222D02*
X018710Y031222D01*
X018868Y031063D02*
X016810Y031063D01*
X016969Y030905D02*
X019027Y030905D01*
X019185Y030746D02*
X017089Y030746D01*
X017118Y030588D02*
X019344Y030588D01*
X019502Y030429D02*
X017118Y030429D01*
X017118Y030271D02*
X019661Y030271D01*
X019819Y030112D02*
X017118Y030112D01*
X017118Y029954D02*
X019978Y029954D01*
X020136Y029795D02*
X017118Y029795D01*
X017109Y029637D02*
X037545Y029637D01*
X037386Y029795D02*
X020724Y029795D01*
X020882Y029954D02*
X037228Y029954D01*
X037069Y030112D02*
X021041Y030112D01*
X021199Y030271D02*
X036911Y030271D01*
X036752Y030429D02*
X021358Y030429D01*
X021516Y030588D02*
X036594Y030588D01*
X036435Y030746D02*
X021675Y030746D01*
X021833Y030905D02*
X036277Y030905D01*
X036118Y031063D02*
X031251Y031063D01*
X031381Y031222D02*
X035960Y031222D01*
X035801Y031380D02*
X031404Y031380D01*
X031404Y031539D02*
X035643Y031539D01*
X035484Y031697D02*
X031370Y031697D01*
X031225Y031856D02*
X035326Y031856D01*
X035167Y032014D02*
X030579Y032014D01*
X030385Y032173D02*
X035009Y032173D01*
X034850Y032331D02*
X030121Y032331D01*
X030121Y032490D02*
X034692Y032490D01*
X034533Y032648D02*
X030121Y032648D01*
X030121Y032807D02*
X034375Y032807D01*
X034216Y032965D02*
X030096Y032965D01*
X029923Y033124D02*
X034058Y033124D01*
X030140Y032173D02*
X030094Y032173D01*
X029740Y033124D02*
X029482Y033124D01*
X029299Y033124D02*
X029113Y033124D01*
X027847Y032014D02*
X025077Y032014D01*
X025010Y032173D02*
X024884Y032173D01*
X024308Y032173D02*
X023101Y032173D01*
X023260Y032331D02*
X024313Y032331D01*
X024306Y032490D02*
X023418Y032490D01*
X023577Y032648D02*
X024306Y032648D01*
X024248Y032807D02*
X023735Y032807D01*
X023894Y032965D02*
X024104Y032965D01*
X024086Y033124D02*
X024052Y033124D01*
X024115Y032014D02*
X022943Y032014D01*
X022784Y031856D02*
X024086Y031856D01*
X024086Y031697D02*
X022626Y031697D01*
X022467Y031539D02*
X024086Y031539D01*
X024086Y031380D02*
X022309Y031380D01*
X022150Y031222D02*
X024086Y031222D01*
X024129Y031063D02*
X021992Y031063D01*
X024622Y031063D02*
X024829Y031063D01*
X024785Y031222D02*
X024666Y031222D01*
X025322Y031063D02*
X025522Y031063D01*
X025392Y031222D02*
X025365Y031222D01*
X025581Y032173D02*
X025600Y032173D01*
X026061Y032173D02*
X026760Y032173D01*
X026601Y032331D02*
X026168Y032331D01*
X026175Y032490D02*
X026535Y032490D01*
X026535Y032648D02*
X026162Y032648D01*
X026175Y032807D02*
X026535Y032807D01*
X026535Y032965D02*
X026151Y032965D01*
X025977Y033124D02*
X026581Y033124D01*
X025684Y033124D02*
X025497Y033124D01*
X027331Y032173D02*
X027459Y032173D01*
X027389Y031856D02*
X027818Y031856D01*
X027818Y031697D02*
X027458Y031697D01*
X027458Y031539D02*
X027818Y031539D01*
X027818Y031380D02*
X027458Y031380D01*
X027458Y031222D02*
X027818Y031222D01*
X027862Y031063D02*
X027415Y031063D01*
X028354Y031063D02*
X028671Y031063D01*
X032469Y028210D02*
X038971Y028210D01*
X038813Y028369D02*
X018459Y028369D01*
X018459Y028527D02*
X038654Y028527D01*
X038496Y028686D02*
X018459Y028686D01*
X018459Y028844D02*
X038337Y028844D01*
X038179Y029003D02*
X018459Y029003D01*
X018459Y029161D02*
X038020Y029161D01*
X037862Y029320D02*
X018391Y029320D01*
X017237Y029320D02*
X002998Y029320D01*
X002840Y029161D02*
X017169Y029161D01*
X017169Y029003D02*
X002681Y029003D01*
X002523Y028844D02*
X017169Y028844D01*
X017169Y028686D02*
X002364Y028686D01*
X002206Y028527D02*
X017169Y028527D01*
X017169Y028369D02*
X002047Y028369D01*
X001889Y028210D02*
X016970Y028210D01*
X016812Y028052D02*
X001730Y028052D01*
X001160Y025674D02*
X010946Y025674D01*
X010881Y025516D02*
X001160Y025516D01*
X001160Y025357D02*
X006539Y025357D01*
X006395Y025199D02*
X001160Y025199D01*
X001160Y025040D02*
X006388Y025040D01*
X006388Y024882D02*
X001160Y024882D01*
X001160Y024723D02*
X005788Y024723D01*
X005769Y024565D02*
X001160Y024565D01*
X001160Y024406D02*
X005769Y024406D01*
X006208Y024432D02*
X006210Y024430D01*
X007839Y024430D01*
X007837Y024428D01*
X007839Y024930D02*
X006832Y024930D01*
X006826Y024936D01*
X007112Y025357D02*
X010881Y025357D01*
X010934Y025199D02*
X008389Y025199D01*
X008479Y025040D02*
X010881Y025040D01*
X010881Y024882D02*
X008479Y024882D01*
X008446Y024723D02*
X010914Y024723D01*
X010884Y024565D02*
X008476Y024565D01*
X008479Y024406D02*
X010881Y024406D01*
X010904Y024248D02*
X008456Y024248D01*
X008466Y024089D02*
X010894Y024089D01*
X010881Y023931D02*
X008479Y023931D01*
X008466Y023772D02*
X010894Y023772D01*
X010904Y023614D02*
X008456Y023614D01*
X008479Y023455D02*
X010881Y023455D01*
X010883Y023297D02*
X008477Y023297D01*
X008446Y023138D02*
X010914Y023138D01*
X010881Y022980D02*
X008479Y022980D01*
X008479Y022821D02*
X010881Y022821D01*
X010935Y022663D02*
X008425Y022663D01*
X008479Y022504D02*
X010881Y022504D01*
X010881Y022346D02*
X008479Y022346D01*
X008415Y022187D02*
X010945Y022187D01*
X010881Y022029D02*
X008479Y022029D01*
X008479Y021870D02*
X010881Y021870D01*
X010921Y021712D02*
X008439Y021712D01*
X008479Y021553D02*
X010881Y021553D01*
X010881Y021395D02*
X008479Y021395D01*
X008451Y021236D02*
X010909Y021236D01*
X010889Y021078D02*
X008471Y021078D01*
X008479Y020919D02*
X010881Y020919D01*
X010898Y020761D02*
X008462Y020761D01*
X008461Y020602D02*
X010899Y020602D01*
X010881Y020444D02*
X008479Y020444D01*
X008472Y020285D02*
X010888Y020285D01*
X010910Y020127D02*
X008450Y020127D01*
X008479Y019968D02*
X010881Y019968D01*
X010881Y019810D02*
X008479Y019810D01*
X008437Y019651D02*
X010923Y019651D01*
X010881Y019493D02*
X008479Y019493D01*
X008479Y019334D02*
X010881Y019334D01*
X010948Y019176D02*
X008412Y019176D01*
X008479Y019017D02*
X010881Y019017D01*
X010881Y018859D02*
X008479Y018859D01*
X008428Y018700D02*
X010932Y018700D01*
X012109Y018700D02*
X014880Y018700D01*
X014880Y018671D02*
X015032Y018304D01*
X015314Y018022D01*
X015681Y017870D01*
X016079Y017870D01*
X016446Y018022D01*
X016728Y018304D01*
X016880Y018671D01*
X016880Y019069D01*
X016728Y019436D01*
X016446Y019718D01*
X016079Y019870D01*
X015681Y019870D01*
X015314Y019718D01*
X015032Y019436D01*
X014880Y019069D01*
X014880Y018671D01*
X014934Y018542D02*
X006142Y018542D01*
X006142Y018700D02*
X007251Y018700D01*
X007199Y018859D02*
X006142Y018859D01*
X006142Y019017D02*
X007199Y019017D01*
X007267Y019176D02*
X006142Y019176D01*
X006142Y019334D02*
X007199Y019334D01*
X007199Y019493D02*
X006142Y019493D01*
X006142Y019651D02*
X007242Y019651D01*
X007199Y019810D02*
X006142Y019810D01*
X006142Y019968D02*
X007199Y019968D01*
X007228Y020127D02*
X006142Y020127D01*
X006142Y020285D02*
X007207Y020285D01*
X007199Y020444D02*
X006142Y020444D01*
X006142Y020602D02*
X007218Y020602D01*
X007217Y020761D02*
X006142Y020761D01*
X006142Y020919D02*
X007199Y020919D01*
X007208Y021078D02*
X006142Y021078D01*
X006142Y021236D02*
X007227Y021236D01*
X007199Y021395D02*
X006142Y021395D01*
X006142Y021553D02*
X007199Y021553D01*
X007240Y021712D02*
X006142Y021712D01*
X006142Y021870D02*
X007199Y021870D01*
X007199Y022029D02*
X006142Y022029D01*
X006142Y022187D02*
X007264Y022187D01*
X007199Y022346D02*
X006142Y022346D01*
X006232Y022504D02*
X007199Y022504D01*
X007837Y022932D02*
X006208Y022932D01*
X005822Y022546D01*
X005822Y017786D01*
X006247Y017361D01*
X017865Y017361D01*
X018365Y017861D01*
X018365Y020066D01*
X018979Y020680D01*
X019180Y020680D01*
X018738Y020919D02*
X014400Y020919D01*
X014362Y020761D02*
X018607Y020761D01*
X018449Y020602D02*
X014337Y020602D01*
X014076Y020930D02*
X013924Y020908D01*
X014076Y020930D02*
X011521Y020930D01*
X012142Y020602D02*
X013511Y020602D01*
X014362Y021078D02*
X018870Y021078D01*
X018945Y021236D02*
X014328Y021236D01*
X013673Y021395D02*
X018758Y021395D01*
X018691Y021553D02*
X013673Y021553D01*
X013658Y021712D02*
X018680Y021712D01*
X018718Y021870D02*
X013012Y021870D01*
X012574Y021936D02*
X012489Y021930D01*
X011521Y021930D01*
X011521Y021430D02*
X013213Y021430D01*
X013235Y021428D01*
X013555Y022029D02*
X018821Y022029D01*
X019180Y023680D02*
X019176Y023684D01*
X018917Y024248D02*
X014700Y024248D01*
X014859Y024406D02*
X018752Y024406D01*
X018687Y024565D02*
X015017Y024565D01*
X015176Y024723D02*
X018680Y024723D01*
X018722Y024882D02*
X015334Y024882D01*
X015493Y025040D02*
X018833Y025040D01*
X016444Y025991D02*
X028157Y025991D01*
X028381Y025523D02*
X027676Y025523D01*
X027672Y025526D01*
X027234Y025516D02*
X015968Y025516D01*
X016127Y025674D02*
X027234Y025674D01*
X027259Y025833D02*
X016285Y025833D01*
X015810Y025357D02*
X027234Y025357D01*
X027268Y025199D02*
X015651Y025199D01*
X014060Y022930D02*
X013893Y022924D01*
X014060Y022930D02*
X011521Y022930D01*
X011521Y022430D02*
X013210Y022430D01*
X013235Y022436D01*
X012161Y020444D02*
X018290Y020444D01*
X018132Y020285D02*
X012153Y020285D01*
X012132Y020127D02*
X018045Y020127D01*
X018045Y019968D02*
X012161Y019968D01*
X012161Y019810D02*
X015535Y019810D01*
X015247Y019651D02*
X012118Y019651D01*
X012161Y019493D02*
X015088Y019493D01*
X014990Y019334D02*
X012161Y019334D01*
X012093Y019176D02*
X014924Y019176D01*
X014880Y019017D02*
X012161Y019017D01*
X012161Y018859D02*
X014880Y018859D01*
X014999Y018383D02*
X006142Y018383D01*
X006142Y018225D02*
X015111Y018225D01*
X015270Y018066D02*
X006142Y018066D01*
X006153Y017908D02*
X015590Y017908D01*
X016170Y017908D02*
X017959Y017908D01*
X018045Y018066D02*
X016490Y018066D01*
X016649Y018225D02*
X018045Y018225D01*
X018045Y018383D02*
X016761Y018383D01*
X016826Y018542D02*
X018045Y018542D01*
X018045Y018700D02*
X016880Y018700D01*
X016880Y018859D02*
X018045Y018859D01*
X018045Y019017D02*
X016880Y019017D01*
X016836Y019176D02*
X018045Y019176D01*
X018045Y019334D02*
X016770Y019334D01*
X016672Y019493D02*
X018045Y019493D01*
X018045Y019651D02*
X016513Y019651D01*
X016225Y019810D02*
X018045Y019810D01*
X019599Y019968D02*
X021761Y019968D01*
X021692Y019810D02*
X019668Y019810D01*
X019680Y019651D02*
X021680Y019651D01*
X021716Y019493D02*
X019644Y019493D01*
X019541Y019334D02*
X021819Y019334D01*
X019472Y018542D02*
X029580Y018542D01*
X029560Y018383D02*
X019472Y018383D01*
X019472Y018225D02*
X029451Y018225D01*
X029451Y018066D02*
X019472Y018066D01*
X019472Y017908D02*
X029451Y017908D01*
X029451Y017749D02*
X019472Y017749D01*
X019472Y017591D02*
X029542Y017591D01*
X030236Y017591D02*
X037412Y017591D01*
X037570Y017749D02*
X030327Y017749D01*
X030500Y018700D02*
X032860Y018700D01*
X032867Y018684D02*
X032934Y018617D01*
X033022Y018580D01*
X033898Y018580D01*
X033970Y018610D01*
X036159Y018610D01*
X036277Y018659D01*
X036476Y018859D02*
X038680Y018859D01*
X038838Y019017D02*
X036635Y019017D01*
X036793Y019176D02*
X038997Y019176D01*
X039155Y019334D02*
X036952Y019334D01*
X037110Y019493D02*
X039314Y019493D01*
X039472Y019651D02*
X037226Y019651D01*
X037244Y019810D02*
X039631Y019810D01*
X039700Y019968D02*
X037244Y019968D01*
X037244Y020127D02*
X039700Y020127D01*
X039700Y020285D02*
X037313Y020285D01*
X037396Y020444D02*
X039700Y020444D01*
X039700Y020602D02*
X038935Y020602D01*
X039180Y020761D02*
X039700Y020761D01*
X039700Y020919D02*
X039288Y020919D01*
X039346Y021078D02*
X039700Y021078D01*
X039700Y021236D02*
X039346Y021236D01*
X039308Y021395D02*
X039700Y021395D01*
X039700Y021553D02*
X039226Y021553D01*
X039231Y021712D02*
X039700Y021712D01*
X039700Y021870D02*
X039368Y021870D01*
X039434Y022029D02*
X039700Y022029D01*
X039700Y022187D02*
X039446Y022187D01*
X039428Y022346D02*
X039700Y022346D01*
X039700Y022504D02*
X039362Y022504D01*
X039216Y022663D02*
X039700Y022663D01*
X039700Y022821D02*
X037372Y022821D01*
X037361Y022980D02*
X039700Y022980D01*
X039700Y023138D02*
X037390Y023138D01*
X037390Y023297D02*
X039700Y023297D01*
X039700Y023455D02*
X037390Y023455D01*
X037359Y023614D02*
X038610Y023614D01*
X038382Y023772D02*
X035977Y023772D01*
X035818Y023614D02*
X036544Y023614D01*
X036514Y023455D02*
X035660Y023455D01*
X035501Y023297D02*
X036514Y023297D01*
X036514Y023138D02*
X035343Y023138D01*
X035276Y022980D02*
X036542Y022980D01*
X036488Y022821D02*
X035276Y022821D01*
X035276Y022663D02*
X036454Y022663D01*
X036454Y022504D02*
X035276Y022504D01*
X035276Y022346D02*
X036454Y022346D01*
X036544Y022187D02*
X035276Y022187D01*
X035276Y022029D02*
X036454Y022029D01*
X036454Y021870D02*
X035276Y021870D01*
X035276Y021712D02*
X036454Y021712D01*
X036181Y021553D02*
X035276Y021553D01*
X035276Y021395D02*
X035471Y021395D01*
X035438Y021236D02*
X035276Y021236D01*
X035276Y021078D02*
X035438Y021078D01*
X035438Y020919D02*
X035276Y020919D01*
X035276Y020761D02*
X035438Y020761D01*
X035438Y020602D02*
X035276Y020602D01*
X035259Y020444D02*
X035532Y020444D01*
X035147Y020285D02*
X036527Y020285D01*
X036604Y020127D02*
X034943Y020127D01*
X034839Y020430D02*
X034956Y020546D01*
X034956Y023204D01*
X035928Y024176D01*
X038832Y024176D01*
X039291Y023772D02*
X039700Y023772D01*
X039700Y023614D02*
X039063Y023614D01*
X039393Y023931D02*
X039700Y023931D01*
X039700Y024089D02*
X039446Y024089D01*
X039446Y024248D02*
X039700Y024248D01*
X039700Y024406D02*
X039403Y024406D01*
X039314Y024565D02*
X039700Y024565D01*
X039700Y024723D02*
X039142Y024723D01*
X039273Y024882D02*
X039700Y024882D01*
X039700Y025040D02*
X039339Y025040D01*
X039346Y025199D02*
X039700Y025199D01*
X039700Y025357D02*
X039323Y025357D01*
X039258Y025516D02*
X039700Y025516D01*
X039700Y025674D02*
X039193Y025674D01*
X039352Y025833D02*
X039700Y025833D01*
X039700Y025991D02*
X039418Y025991D01*
X039446Y026150D02*
X039700Y026150D01*
X039700Y026308D02*
X039444Y026308D01*
X039378Y026467D02*
X039700Y026467D01*
X039700Y026625D02*
X039254Y026625D01*
X038973Y026784D02*
X039700Y026784D01*
X039700Y026942D02*
X033734Y026942D01*
X033780Y026784D02*
X038699Y026784D01*
X038419Y026625D02*
X033780Y026625D01*
X033780Y026467D02*
X038295Y026467D01*
X038229Y026308D02*
X033780Y026308D01*
X033780Y026150D02*
X038226Y026150D01*
X038254Y025991D02*
X035754Y025991D01*
X035787Y025833D02*
X038321Y025833D01*
X038368Y025674D02*
X035787Y025674D01*
X035787Y025516D02*
X038215Y025516D01*
X038732Y025176D02*
X036034Y025176D01*
X034523Y023664D01*
X034523Y020983D01*
X034469Y020930D01*
X033460Y020930D01*
X033460Y020430D02*
X034839Y020430D01*
X034090Y019968D02*
X036604Y019968D01*
X036522Y019810D02*
X034090Y019810D01*
X034064Y019651D02*
X036364Y019651D01*
X036205Y019493D02*
X034090Y019493D01*
X034090Y019334D02*
X036047Y019334D01*
X036095Y018930D02*
X036924Y019759D01*
X036924Y020621D01*
X036920Y020625D01*
X037475Y021180D01*
X038736Y021180D01*
X038293Y020761D02*
X037508Y020761D01*
X037396Y020602D02*
X038538Y020602D01*
X038247Y021553D02*
X037390Y021553D01*
X037406Y021712D02*
X038426Y021712D01*
X038304Y021870D02*
X037406Y021870D01*
X037406Y022029D02*
X038239Y022029D01*
X038226Y022187D02*
X037316Y022187D01*
X037406Y022346D02*
X038245Y022346D01*
X038310Y022504D02*
X037406Y022504D01*
X037406Y022663D02*
X038456Y022663D01*
X036950Y022515D02*
X036950Y023292D01*
X036952Y023294D01*
X036930Y022534D02*
X036950Y022515D01*
X036930Y021826D02*
X036920Y021816D01*
X036920Y021334D01*
X036414Y021334D01*
X036032Y020952D01*
X034203Y021250D02*
X034081Y021250D01*
X034090Y021272D01*
X034090Y021588D01*
X034053Y021676D01*
X034049Y021680D01*
X034053Y021684D01*
X034090Y021772D01*
X034090Y022088D01*
X034053Y022176D01*
X033986Y022243D01*
X033898Y022280D01*
X033022Y022280D01*
X032934Y022243D01*
X032867Y022176D01*
X032830Y022088D01*
X032830Y021772D01*
X032867Y021684D01*
X032871Y021680D01*
X032867Y021676D01*
X032830Y021588D01*
X032830Y021272D01*
X032867Y021184D01*
X032871Y021180D01*
X032867Y021176D01*
X032830Y021088D01*
X032830Y020772D01*
X032867Y020684D01*
X032871Y020680D01*
X032867Y020676D01*
X032830Y020588D01*
X032830Y020272D01*
X032867Y020184D01*
X032871Y020180D01*
X032867Y020176D01*
X032830Y020088D01*
X032830Y019772D01*
X032867Y019684D01*
X032871Y019680D01*
X032867Y019676D01*
X032830Y019588D01*
X032830Y019272D01*
X032867Y019184D01*
X032871Y019180D01*
X032867Y019176D01*
X032830Y019088D01*
X032830Y018772D01*
X032867Y018684D01*
X032830Y018859D02*
X030530Y018859D01*
X030530Y019017D02*
X032830Y019017D01*
X032866Y019176D02*
X030494Y019176D01*
X030460Y019651D02*
X032856Y019651D01*
X032830Y019493D02*
X029264Y019493D01*
X029266Y019334D02*
X032830Y019334D01*
X032830Y019810D02*
X030530Y019810D01*
X030530Y019968D02*
X032830Y019968D01*
X032846Y020127D02*
X030514Y020127D01*
X030530Y020285D02*
X032830Y020285D01*
X032830Y020444D02*
X030530Y020444D01*
X030524Y020602D02*
X032836Y020602D01*
X032835Y020761D02*
X030525Y020761D01*
X030530Y020919D02*
X032830Y020919D01*
X032830Y021078D02*
X030530Y021078D01*
X030515Y021236D02*
X032845Y021236D01*
X032830Y021395D02*
X030530Y021395D01*
X030530Y021553D02*
X032830Y021553D01*
X032855Y021712D02*
X030505Y021712D01*
X030530Y021870D02*
X032830Y021870D01*
X032830Y022029D02*
X030530Y022029D01*
X030495Y022187D02*
X032878Y022187D01*
X033022Y022580D02*
X033898Y022580D01*
X033986Y022617D01*
X034053Y022684D01*
X034090Y022772D01*
X034090Y023088D01*
X034053Y023176D01*
X034049Y023180D01*
X034053Y023184D01*
X034090Y023272D01*
X034090Y023588D01*
X034053Y023676D01*
X034049Y023680D01*
X034053Y023684D01*
X034090Y023772D01*
X034221Y023772D01*
X034203Y023728D02*
X034203Y021250D01*
X034203Y021395D02*
X034090Y021395D01*
X034090Y021553D02*
X034203Y021553D01*
X034203Y021712D02*
X034065Y021712D01*
X034090Y021870D02*
X034203Y021870D01*
X034203Y022029D02*
X034090Y022029D01*
X034042Y022187D02*
X034203Y022187D01*
X034203Y022346D02*
X030530Y022346D01*
X030530Y022504D02*
X034203Y022504D01*
X034203Y022663D02*
X034032Y022663D01*
X034090Y022821D02*
X034203Y022821D01*
X034203Y022980D02*
X034090Y022980D01*
X034069Y023138D02*
X034203Y023138D01*
X034203Y023297D02*
X034090Y023297D01*
X034090Y023455D02*
X034203Y023455D01*
X034203Y023614D02*
X034079Y023614D01*
X034090Y023772D02*
X034090Y024088D01*
X034053Y024176D01*
X034049Y024180D01*
X034053Y024184D01*
X034090Y024272D01*
X034090Y024574D01*
X034740Y024574D01*
X034828Y024610D01*
X034895Y024678D01*
X034932Y024766D01*
X034932Y024831D01*
X034995Y024858D01*
X035364Y025226D01*
X035595Y025226D01*
X035658Y025252D01*
X034251Y023846D01*
X034203Y023728D01*
X034090Y023931D02*
X034336Y023931D01*
X034495Y024089D02*
X034089Y024089D01*
X034080Y024248D02*
X034653Y024248D01*
X034812Y024406D02*
X034090Y024406D01*
X034090Y024565D02*
X034970Y024565D01*
X034914Y024723D02*
X035129Y024723D01*
X035019Y024882D02*
X035287Y024882D01*
X035178Y025040D02*
X035446Y025040D01*
X035336Y025199D02*
X035604Y025199D01*
X035763Y025357D02*
X035763Y025357D01*
X035349Y025664D02*
X034814Y025129D01*
X034337Y025129D01*
X034139Y024930D01*
X033460Y024930D01*
X032830Y024882D02*
X030530Y024882D01*
X030530Y025040D02*
X032830Y025040D01*
X032861Y025199D02*
X030499Y025199D01*
X030530Y025357D02*
X032830Y025357D01*
X032830Y025516D02*
X030530Y025516D01*
X030494Y025674D02*
X032866Y025674D01*
X033460Y025430D02*
X033460Y026058D01*
X033780Y025991D02*
X034945Y025991D01*
X034911Y025833D02*
X033780Y025833D01*
X034763Y025674D02*
X034907Y025674D01*
X033578Y027101D02*
X039700Y027101D01*
X039700Y027259D02*
X033420Y027259D01*
X033261Y027418D02*
X039700Y027418D01*
X039605Y027576D02*
X033103Y027576D01*
X032944Y027735D02*
X039447Y027735D01*
X039288Y027893D02*
X032786Y027893D01*
X032627Y028052D02*
X039130Y028052D01*
X037703Y029478D02*
X017018Y029478D01*
X016478Y029478D02*
X015857Y029478D01*
X015948Y029637D02*
X016387Y029637D01*
X016378Y029795D02*
X015957Y029795D01*
X015957Y029954D02*
X016378Y029954D01*
X016378Y030112D02*
X015957Y030112D01*
X015957Y030271D02*
X016378Y030271D01*
X016378Y030429D02*
X015957Y030429D01*
X015217Y031222D02*
X015112Y031222D01*
X015217Y031380D02*
X014968Y031380D01*
X014757Y031539D02*
X015217Y031539D01*
X015288Y031697D02*
X013687Y031697D01*
X013846Y031539D02*
X014542Y031539D01*
X014331Y031380D02*
X013997Y031380D01*
X014049Y031222D02*
X014187Y031222D01*
X014141Y030588D02*
X014049Y030588D01*
X014049Y030429D02*
X014280Y030429D01*
X014280Y030271D02*
X014049Y030271D01*
X014049Y030112D02*
X014280Y030112D01*
X014280Y029954D02*
X014049Y029954D01*
X013976Y029795D02*
X014353Y029795D01*
X014511Y029637D02*
X013817Y029637D01*
X013659Y029478D02*
X014670Y029478D01*
X015210Y029478D02*
X015317Y029478D01*
X012509Y031697D02*
X012136Y031697D01*
X012207Y031539D02*
X012351Y031539D01*
X010650Y031856D02*
X010393Y031856D01*
X010377Y031697D02*
X010136Y031697D01*
X010056Y031539D02*
X010306Y031539D01*
X010306Y031380D02*
X009150Y031380D01*
X009230Y031539D02*
X009550Y031539D01*
X010306Y031222D02*
X008642Y031222D01*
X008402Y031222D02*
X008245Y031222D01*
X010504Y032014D02*
X010622Y032014D01*
X010594Y032173D02*
X010590Y032173D01*
X010329Y032965D02*
X010117Y032965D01*
X005076Y024248D02*
X001160Y024248D01*
X001160Y024089D02*
X005049Y024089D01*
X005049Y023931D02*
X001160Y023931D01*
X001160Y023772D02*
X005049Y023772D01*
X005081Y023614D02*
X001160Y023614D01*
X005487Y023936D02*
X005493Y023930D01*
X007839Y023930D01*
X007839Y023430D02*
X005950Y023430D01*
X007837Y022932D02*
X007839Y022930D01*
X006312Y017749D02*
X017800Y017749D01*
X018327Y016481D02*
X004558Y016481D01*
X004716Y016323D02*
X018168Y016323D01*
X018073Y016164D02*
X004875Y016164D01*
X005033Y016006D02*
X018007Y016006D01*
X018005Y015847D02*
X005192Y015847D01*
X005350Y015689D02*
X018012Y015689D01*
X018078Y015530D02*
X005509Y015530D01*
X005667Y015372D02*
X018180Y015372D01*
X018357Y015213D02*
X017715Y015213D01*
X017814Y015055D02*
X019169Y015055D01*
X019133Y015213D02*
X019327Y015213D01*
X019310Y015372D02*
X019430Y015372D01*
X019915Y014896D02*
X034717Y014896D01*
X034559Y014738D02*
X019757Y014738D01*
X020074Y015055D02*
X034876Y015055D01*
X035034Y015213D02*
X020383Y015213D01*
X020560Y015372D02*
X035193Y015372D01*
X035351Y015530D02*
X020662Y015530D01*
X020728Y015689D02*
X035510Y015689D01*
X035668Y015847D02*
X020735Y015847D01*
X020733Y016006D02*
X035827Y016006D01*
X035985Y016164D02*
X020667Y016164D01*
X020572Y016323D02*
X036144Y016323D01*
X036302Y016481D02*
X020413Y016481D01*
X019381Y017432D02*
X037253Y017432D01*
X037095Y017274D02*
X019222Y017274D01*
X016724Y015213D02*
X005826Y015213D01*
X005984Y015055D02*
X016625Y015055D01*
X016625Y014896D02*
X006143Y014896D01*
X006301Y014738D02*
X016625Y014738D01*
X016625Y014579D02*
X006460Y014579D01*
X006618Y014421D02*
X016625Y014421D01*
X016656Y014262D02*
X006777Y014262D01*
X006935Y014104D02*
X023823Y014104D01*
X023757Y013945D02*
X007094Y013945D01*
X007252Y013787D02*
X023691Y013787D01*
X023680Y013628D02*
X007411Y013628D01*
X007569Y013470D02*
X023680Y013470D01*
X023701Y013311D02*
X007728Y013311D01*
X007886Y013153D02*
X023766Y013153D01*
X024199Y012677D02*
X008362Y012677D01*
X022553Y022346D02*
X029270Y022346D01*
X029270Y022504D02*
X022648Y022504D01*
X022680Y022663D02*
X028063Y022663D01*
X028038Y022821D02*
X022663Y022821D01*
X022588Y022980D02*
X028038Y022980D01*
X028633Y023086D02*
X028788Y022930D01*
X029900Y022930D01*
X030530Y022980D02*
X032830Y022980D01*
X032830Y023088D02*
X032830Y022772D01*
X032867Y022684D01*
X032934Y022617D01*
X033022Y022580D01*
X032888Y022663D02*
X030499Y022663D01*
X030530Y022821D02*
X032830Y022821D01*
X032830Y023088D02*
X032867Y023176D01*
X032871Y023180D01*
X032867Y023184D01*
X032830Y023272D01*
X032830Y023588D01*
X032867Y023676D01*
X032871Y023680D01*
X032867Y023684D01*
X032830Y023772D01*
X032830Y023931D02*
X030530Y023931D01*
X030529Y024089D02*
X032831Y024089D01*
X032840Y024248D02*
X030520Y024248D01*
X030530Y024406D02*
X032830Y024406D01*
X032830Y024565D02*
X030530Y024565D01*
X030510Y024723D02*
X032850Y024723D01*
X032841Y023614D02*
X030419Y023614D01*
X030426Y023617D02*
X030493Y023684D01*
X030530Y023772D01*
X030426Y023617D02*
X030338Y023580D01*
X029462Y023580D01*
X029374Y023617D01*
X029307Y023684D01*
X029270Y023772D01*
X029270Y023931D02*
X025659Y023931D01*
X025680Y024089D02*
X029271Y024089D01*
X029280Y024248D02*
X025680Y024248D01*
X025669Y024406D02*
X029270Y024406D01*
X029270Y024565D02*
X025603Y024565D01*
X025537Y024723D02*
X029290Y024723D01*
X029270Y024882D02*
X025393Y024882D01*
X025217Y025040D02*
X029270Y025040D01*
X028866Y025991D02*
X028605Y025991D01*
X030220Y025991D02*
X030844Y025991D01*
X030844Y026150D02*
X030220Y026150D01*
X030220Y026308D02*
X030844Y026308D01*
X030861Y026467D02*
X030220Y026467D01*
X030220Y025833D02*
X030894Y025833D01*
X031282Y026180D02*
X031290Y026172D01*
X032176Y026172D01*
X031802Y025833D02*
X031671Y025833D01*
X032830Y023455D02*
X029224Y023455D01*
X029227Y023297D02*
X032830Y023297D01*
X032851Y023138D02*
X030509Y023138D01*
X029381Y023614D02*
X029100Y023614D01*
X029144Y019651D02*
X029340Y019651D01*
X033460Y018930D02*
X036095Y018930D01*
D30*
X036952Y023294D03*
X035349Y025664D03*
X031282Y026180D03*
X027672Y025526D03*
X029889Y017979D03*
X013924Y020908D03*
X013235Y021428D03*
X012574Y021936D03*
X013235Y022436D03*
X013893Y022924D03*
X013235Y023436D03*
X012574Y023936D03*
X011755Y027495D03*
X006826Y024936D03*
X006208Y024432D03*
X005487Y023936D03*
M02*
