G75*
G70*
%OFA0B0*%
%FSLAX24Y24*%
%IPPOS*%
%LPD*%
%AMOC8*
5,1,8,0,0,1.08239X$1,22.5*
%
%ADD10C,0.0600*%
%ADD11C,0.1080*%
%ADD12R,0.1080X0.1080*%
%ADD13C,0.0730*%
%ADD14R,0.0730X0.0730*%
%ADD15C,0.0820*%
%ADD16R,0.0890X0.0890*%
%ADD17C,0.0890*%
%ADD18C,0.1120*%
%ADD19C,0.0595*%
%ADD20C,0.0552*%
%ADD21R,0.0476X0.0476*%
D10*
X019180Y019680D03*
X019180Y020680D03*
X019180Y021680D03*
X019180Y022680D03*
X019180Y023680D03*
X019180Y024680D03*
X022180Y024680D03*
X022180Y023680D03*
X022180Y022680D03*
X022180Y021680D03*
X022180Y020680D03*
X022180Y019680D03*
D11*
X018745Y009603D03*
X022495Y009603D03*
X019995Y015853D03*
X018745Y015853D03*
D12*
X022495Y015853D03*
D13*
X020641Y004428D03*
D14*
X020641Y005428D03*
D15*
X038736Y021180D03*
X038836Y022180D03*
X038736Y023180D03*
X038836Y024180D03*
X038736Y025180D03*
X038836Y026180D03*
D16*
X017814Y028747D03*
D17*
X022814Y028747D03*
D18*
X024680Y024180D03*
X015880Y018870D03*
X024680Y013560D03*
D19*
X021424Y007971D03*
X020637Y007971D03*
X019849Y007971D03*
X019849Y007184D03*
X020637Y007184D03*
X021424Y007184D03*
D20*
X022330Y007578D03*
X018944Y007578D03*
D21*
X029889Y017979D03*
X036952Y023294D03*
X035349Y025664D03*
X031282Y026180D03*
X027672Y025526D03*
X013893Y022924D03*
X013235Y022436D03*
X012574Y021936D03*
X013235Y021428D03*
X013924Y020908D03*
X013235Y023436D03*
X012574Y023936D03*
X011755Y027495D03*
X006826Y024936D03*
X006208Y024432D03*
X005487Y023936D03*
M02*
