%
M48
M72
T01C0.0236
T02C0.0276
T03C0.0315
T04C0.0320
T05C0.0400
T06C0.0472
T07C0.0540
T08C0.0550
T09C0.1040
%
T01
X13924Y20908
X13235Y21428
X12574Y21936
X13235Y22436
X13893Y22924
X13235Y23436
X12574Y23936
X11755Y27495
X6826Y24936
X6208Y24432
X5487Y23936
X27672Y25526
X31282Y26180
X35349Y25664
X36952Y23294
X29889Y17979
T02
X20641Y5428
X20641Y4428
T03
X20637Y7184
X21424Y7184
X21424Y7971
X20637Y7971
X19849Y7971
X19849Y7184
T04
X19180Y19680
X19180Y20680
X19180Y21680
X19180Y22680
X19180Y23680
X19180Y24680
X22180Y24680
X22180Y23680
X22180Y22680
X22180Y21680
X22180Y20680
X22180Y19680
T05
X38736Y21180
X38836Y22180
X38736Y23180
X38836Y24180
X38736Y25180
X38836Y26180
T06
X22330Y7578
X18944Y7578
T07
X17814Y28747
X22814Y28747
T08
X18745Y9603
X22495Y9603
X22495Y15853
X19995Y15853
X18745Y15853
T09
X15880Y18870
X24680Y13560
X24680Y24180
M30
