G75*
G70*
%OFA0B0*%
%FSLAX24Y24*%
%IPPOS*%
%LPD*%
%AMOC8*
5,1,8,0,0,1.08239X$1,22.5*
%
%ADD10C,0.0520*%
%ADD11C,0.1000*%
%ADD12R,0.1000X0.1000*%
%ADD13C,0.0650*%
%ADD14R,0.0650X0.0650*%
%ADD15C,0.0740*%
%ADD16R,0.0810X0.0810*%
%ADD17C,0.0810*%
%ADD18C,0.0515*%
%ADD19C,0.0160*%
%ADD20R,0.0396X0.0396*%
%ADD21C,0.0400*%
D10*
X019180Y019680D03*
X019180Y020680D03*
X019180Y021680D03*
X019180Y022680D03*
X019180Y023680D03*
X019180Y024680D03*
X022180Y024680D03*
X022180Y023680D03*
X022180Y022680D03*
X022180Y021680D03*
X022180Y020680D03*
X022180Y019680D03*
D11*
X019995Y015853D03*
X018745Y015853D03*
X018745Y009603D03*
X022495Y009603D03*
D12*
X022495Y015853D03*
D13*
X020641Y004428D03*
D14*
X020641Y005428D03*
D15*
X038736Y021180D03*
X038836Y022180D03*
X038736Y023180D03*
X038836Y024180D03*
X038736Y025180D03*
X038836Y026180D03*
D16*
X017814Y028747D03*
D17*
X022814Y028747D03*
D18*
X021424Y007971D03*
X020637Y007971D03*
X019849Y007971D03*
X019849Y007184D03*
X020637Y007184D03*
X021424Y007184D03*
D19*
X018035Y009824D02*
X011215Y009824D01*
X011373Y009666D02*
X018005Y009666D01*
X018005Y009750D02*
X018005Y009456D01*
X018118Y009184D01*
X018326Y008976D01*
X018598Y008863D01*
X018892Y008863D01*
X019164Y008976D01*
X019372Y009184D01*
X019409Y009273D01*
X019409Y008209D01*
X019385Y008150D01*
X019349Y008185D01*
X019086Y008294D01*
X018801Y008294D01*
X018538Y008185D01*
X018337Y007983D01*
X018228Y007720D01*
X018228Y007435D01*
X018337Y007172D01*
X018538Y006970D01*
X018801Y006861D01*
X019086Y006861D01*
X019349Y006970D01*
X019385Y007006D01*
X019428Y006902D01*
X019567Y006762D01*
X019750Y006686D01*
X019948Y006686D01*
X020131Y006762D01*
X020243Y006874D01*
X020355Y006762D01*
X020538Y006686D01*
X020736Y006686D01*
X020918Y006762D01*
X021030Y006874D01*
X021142Y006762D01*
X021325Y006686D01*
X021523Y006686D01*
X021706Y006762D01*
X021846Y006902D01*
X021889Y007006D01*
X021924Y006970D01*
X022187Y006861D01*
X022472Y006861D01*
X022735Y006970D01*
X022937Y007172D01*
X023046Y007435D01*
X023046Y007720D01*
X022937Y007983D01*
X022735Y008185D01*
X022472Y008294D01*
X022187Y008294D01*
X021924Y008185D01*
X021889Y008150D01*
X021846Y008253D01*
X021706Y008393D01*
X021523Y008469D01*
X021325Y008469D01*
X021142Y008393D01*
X021077Y008327D01*
X021077Y011951D01*
X026543Y017417D01*
X026667Y017541D01*
X026734Y017703D01*
X026734Y026539D01*
X026667Y026701D01*
X025486Y027882D01*
X025362Y028006D01*
X025201Y028073D01*
X019110Y028073D01*
X018459Y028724D01*
X018459Y029200D01*
X018422Y029288D01*
X018355Y029355D01*
X018267Y029392D01*
X017361Y029392D01*
X017273Y029355D01*
X017205Y029288D01*
X017169Y029200D01*
X017169Y028294D01*
X017205Y028206D01*
X017273Y028138D01*
X017361Y028102D01*
X017837Y028102D01*
X018679Y027260D01*
X018841Y027193D01*
X024931Y027193D01*
X025854Y026269D01*
X025854Y017972D01*
X023235Y015353D01*
X023235Y016401D01*
X023198Y016489D01*
X023131Y016557D01*
X023043Y016593D01*
X021947Y016593D01*
X021859Y016557D01*
X021791Y016489D01*
X021755Y016401D01*
X021755Y015305D01*
X021791Y015217D01*
X021859Y015150D01*
X021947Y015113D01*
X022995Y015113D01*
X020289Y012408D01*
X020289Y015174D01*
X020414Y015226D01*
X020622Y015434D01*
X020735Y015706D01*
X020735Y016000D01*
X020622Y016272D01*
X020414Y016481D01*
X020142Y016593D01*
X019848Y016593D01*
X019576Y016481D01*
X019370Y016275D01*
X019164Y016481D01*
X018892Y016593D01*
X018598Y016593D01*
X018326Y016481D01*
X018118Y016272D01*
X018005Y016000D01*
X018005Y015706D01*
X018118Y015434D01*
X018326Y015226D01*
X018598Y015113D01*
X018892Y015113D01*
X019164Y015226D01*
X019370Y015432D01*
X019409Y015392D01*
X019409Y009933D01*
X019372Y010022D01*
X019164Y010231D01*
X018892Y010343D01*
X018598Y010343D01*
X018326Y010231D01*
X018118Y010022D01*
X018005Y009750D01*
X018005Y009507D02*
X011532Y009507D01*
X011690Y009349D02*
X018049Y009349D01*
X018115Y009190D02*
X011849Y009190D01*
X012007Y009032D02*
X018270Y009032D01*
X018574Y008873D02*
X012166Y008873D01*
X012324Y008715D02*
X019409Y008715D01*
X019409Y008873D02*
X018916Y008873D01*
X019220Y009032D02*
X019409Y009032D01*
X019409Y009190D02*
X019375Y009190D01*
X019409Y008556D02*
X012483Y008556D01*
X012641Y008398D02*
X019409Y008398D01*
X019409Y008239D02*
X019219Y008239D01*
X018669Y008239D02*
X012800Y008239D01*
X012958Y008081D02*
X018434Y008081D01*
X018311Y007922D02*
X013117Y007922D01*
X013275Y007764D02*
X018246Y007764D01*
X018228Y007605D02*
X013434Y007605D01*
X013592Y007447D02*
X018228Y007447D01*
X018289Y007288D02*
X013751Y007288D01*
X013909Y007130D02*
X018379Y007130D01*
X018538Y006971D02*
X014068Y006971D01*
X014226Y006813D02*
X019517Y006813D01*
X019399Y006971D02*
X019350Y006971D01*
X020181Y006813D02*
X020305Y006813D01*
X020969Y006813D02*
X021092Y006813D01*
X021756Y006813D02*
X026634Y006813D01*
X026792Y006971D02*
X022736Y006971D01*
X022894Y007130D02*
X026951Y007130D01*
X027109Y007288D02*
X022985Y007288D01*
X023046Y007447D02*
X027268Y007447D01*
X027426Y007605D02*
X023046Y007605D01*
X023028Y007764D02*
X027585Y007764D01*
X027743Y007922D02*
X022962Y007922D01*
X022840Y008081D02*
X027902Y008081D01*
X028060Y008239D02*
X022604Y008239D01*
X022055Y008239D02*
X021852Y008239D01*
X021695Y008398D02*
X028219Y008398D01*
X028377Y008556D02*
X021077Y008556D01*
X021077Y008398D02*
X021153Y008398D01*
X021077Y008715D02*
X028536Y008715D01*
X028694Y008873D02*
X021077Y008873D01*
X021077Y009032D02*
X028853Y009032D01*
X029011Y009190D02*
X021077Y009190D01*
X021077Y009349D02*
X029170Y009349D01*
X029328Y009507D02*
X021077Y009507D01*
X021077Y009666D02*
X029487Y009666D01*
X029645Y009824D02*
X021077Y009824D01*
X021077Y009983D02*
X029804Y009983D01*
X029962Y010141D02*
X021077Y010141D01*
X021077Y010300D02*
X030121Y010300D01*
X030279Y010458D02*
X021077Y010458D01*
X021077Y010617D02*
X030438Y010617D01*
X030596Y010775D02*
X021077Y010775D01*
X021077Y010934D02*
X030755Y010934D01*
X030913Y011092D02*
X021077Y011092D01*
X021077Y011251D02*
X031072Y011251D01*
X031230Y011409D02*
X021077Y011409D01*
X021077Y011568D02*
X031389Y011568D01*
X031547Y011726D02*
X021077Y011726D01*
X021077Y011885D02*
X031706Y011885D01*
X031864Y012043D02*
X021169Y012043D01*
X021328Y012202D02*
X032023Y012202D01*
X032181Y012360D02*
X021486Y012360D01*
X021645Y012519D02*
X032340Y012519D01*
X032498Y012677D02*
X025161Y012677D01*
X025246Y012712D02*
X025528Y012994D01*
X032815Y012994D01*
X032657Y012836D02*
X025370Y012836D01*
X025246Y012712D02*
X024879Y012560D01*
X024481Y012560D01*
X024114Y012712D01*
X023832Y012994D01*
X022120Y012994D01*
X021962Y012836D02*
X023990Y012836D01*
X023832Y012994D02*
X023680Y013361D01*
X023680Y013759D01*
X023832Y014126D01*
X024114Y014408D01*
X024481Y014560D01*
X024879Y014560D01*
X025246Y014408D01*
X025528Y014126D01*
X025680Y013759D01*
X025680Y013361D01*
X025528Y012994D01*
X025594Y013153D02*
X032974Y013153D01*
X033132Y013311D02*
X025659Y013311D01*
X025680Y013470D02*
X033291Y013470D01*
X033449Y013628D02*
X025680Y013628D01*
X025669Y013787D02*
X033608Y013787D01*
X033766Y013945D02*
X025603Y013945D01*
X025537Y014104D02*
X033925Y014104D01*
X034083Y014262D02*
X025392Y014262D01*
X025216Y014421D02*
X034242Y014421D01*
X034400Y014579D02*
X023705Y014579D01*
X023547Y014421D02*
X024144Y014421D01*
X023968Y014262D02*
X023388Y014262D01*
X023230Y014104D02*
X023823Y014104D01*
X023757Y013945D02*
X023071Y013945D01*
X022913Y013787D02*
X023691Y013787D01*
X023680Y013628D02*
X022754Y013628D01*
X022596Y013470D02*
X023680Y013470D01*
X023701Y013311D02*
X022437Y013311D01*
X022279Y013153D02*
X023766Y013153D01*
X024199Y012677D02*
X021803Y012677D01*
X021193Y013311D02*
X020289Y013311D01*
X020289Y013153D02*
X021034Y013153D01*
X020876Y012994D02*
X020289Y012994D01*
X020289Y012836D02*
X020717Y012836D01*
X020559Y012677D02*
X020289Y012677D01*
X020289Y012519D02*
X020400Y012519D01*
X019409Y012519D02*
X008520Y012519D01*
X008362Y012677D02*
X019409Y012677D01*
X019409Y012836D02*
X008203Y012836D01*
X008045Y012994D02*
X019409Y012994D01*
X019409Y013153D02*
X007886Y013153D01*
X007728Y013311D02*
X019409Y013311D01*
X019409Y013470D02*
X007569Y013470D01*
X007411Y013628D02*
X019409Y013628D01*
X019409Y013787D02*
X007252Y013787D01*
X007094Y013945D02*
X019409Y013945D01*
X019409Y014104D02*
X006935Y014104D01*
X006777Y014262D02*
X019409Y014262D01*
X019409Y014421D02*
X006618Y014421D01*
X006460Y014579D02*
X019409Y014579D01*
X019409Y014738D02*
X006301Y014738D01*
X006143Y014896D02*
X019409Y014896D01*
X019409Y015055D02*
X005984Y015055D01*
X005826Y015213D02*
X018357Y015213D01*
X018180Y015372D02*
X005667Y015372D01*
X005509Y015530D02*
X018078Y015530D01*
X018012Y015689D02*
X005350Y015689D01*
X005192Y015847D02*
X018005Y015847D01*
X018007Y016006D02*
X005033Y016006D01*
X004875Y016164D02*
X018073Y016164D01*
X018168Y016323D02*
X004716Y016323D01*
X004558Y016481D02*
X018327Y016481D01*
X019163Y016481D02*
X019577Y016481D01*
X019418Y016323D02*
X019322Y016323D01*
X020413Y016481D02*
X021788Y016481D01*
X021755Y016323D02*
X020572Y016323D01*
X020667Y016164D02*
X021755Y016164D01*
X021755Y016006D02*
X020733Y016006D01*
X020735Y015847D02*
X021755Y015847D01*
X021755Y015689D02*
X020728Y015689D01*
X020662Y015530D02*
X021755Y015530D01*
X021755Y015372D02*
X020560Y015372D01*
X020383Y015213D02*
X021796Y015213D01*
X022461Y014579D02*
X020289Y014579D01*
X020289Y014421D02*
X022302Y014421D01*
X022144Y014262D02*
X020289Y014262D01*
X020289Y014104D02*
X021985Y014104D01*
X021827Y013945D02*
X020289Y013945D01*
X020289Y013787D02*
X021668Y013787D01*
X021510Y013628D02*
X020289Y013628D01*
X020289Y013470D02*
X021351Y013470D01*
X020289Y014738D02*
X022619Y014738D01*
X022778Y014896D02*
X020289Y014896D01*
X020289Y015055D02*
X022936Y015055D01*
X023235Y015372D02*
X023253Y015372D01*
X023235Y015530D02*
X023412Y015530D01*
X023570Y015689D02*
X023235Y015689D01*
X023235Y015847D02*
X023729Y015847D01*
X023887Y016006D02*
X023235Y016006D01*
X023235Y016164D02*
X024046Y016164D01*
X024204Y016323D02*
X023235Y016323D01*
X023202Y016481D02*
X024363Y016481D01*
X024521Y016640D02*
X004399Y016640D01*
X004241Y016798D02*
X004787Y016798D01*
X004763Y016822D02*
X004853Y016732D01*
X004971Y016683D01*
X023208Y016683D01*
X023326Y016732D01*
X024113Y017519D01*
X024203Y017609D01*
X024252Y017727D01*
X024252Y022972D01*
X024203Y023090D01*
X022680Y024613D01*
X022680Y024779D01*
X022604Y024963D01*
X022463Y025104D01*
X022279Y025180D01*
X022081Y025180D01*
X021897Y025104D01*
X021756Y024963D01*
X021680Y024779D01*
X021680Y024581D01*
X021756Y024397D01*
X021897Y024256D01*
X022081Y024180D01*
X021897Y024104D01*
X021789Y023996D01*
X021364Y023996D01*
X021247Y023947D01*
X021157Y023857D01*
X020795Y023496D01*
X019645Y023496D01*
X019680Y023581D01*
X019680Y023779D01*
X019604Y023963D01*
X019463Y024104D01*
X019279Y024180D01*
X019463Y024256D01*
X019604Y024397D01*
X019680Y024581D01*
X019680Y024779D01*
X019604Y024963D01*
X019463Y025104D01*
X019279Y025180D01*
X019081Y025180D01*
X018897Y025104D01*
X018793Y025000D01*
X016660Y025000D01*
X016542Y024951D01*
X016452Y024861D01*
X015847Y024256D01*
X012981Y024256D01*
X012975Y024270D01*
X012908Y024337D01*
X012820Y024374D01*
X012328Y024374D01*
X012240Y024337D01*
X012172Y024270D01*
X012136Y024182D01*
X012136Y023690D01*
X012172Y023602D01*
X012240Y023534D01*
X012328Y023498D01*
X012797Y023498D01*
X012797Y023190D01*
X012834Y023102D01*
X012901Y023034D01*
X012989Y022998D01*
X013454Y022998D01*
X013454Y022874D01*
X012989Y022874D01*
X012901Y022837D01*
X012834Y022770D01*
X012797Y022682D01*
X012797Y022374D01*
X012328Y022374D01*
X012240Y022337D01*
X012172Y022270D01*
X012136Y022182D01*
X012136Y021690D01*
X012172Y021602D01*
X012240Y021534D01*
X012328Y021498D01*
X012797Y021498D01*
X012797Y021182D01*
X012834Y021094D01*
X012901Y021026D01*
X012989Y020990D01*
X013481Y020990D01*
X013486Y020992D01*
X013486Y020662D01*
X013523Y020574D01*
X013590Y020507D01*
X013678Y020470D01*
X014170Y020470D01*
X014258Y020507D01*
X014326Y020574D01*
X014331Y020588D01*
X015957Y020588D01*
X017755Y018790D01*
X017845Y018700D01*
X017963Y018651D01*
X021535Y018651D01*
X021653Y018700D01*
X022133Y019180D01*
X022279Y019180D01*
X022463Y019256D01*
X022604Y019397D01*
X022680Y019581D01*
X022680Y019779D01*
X022604Y019963D01*
X022463Y020104D01*
X022279Y020180D01*
X022463Y020256D01*
X022604Y020397D01*
X022680Y020581D01*
X022680Y020779D01*
X022604Y020963D01*
X022463Y021104D01*
X022279Y021180D01*
X022463Y021256D01*
X022604Y021397D01*
X022680Y021581D01*
X022680Y021779D01*
X022648Y021856D01*
X022697Y021856D01*
X022911Y021642D01*
X022911Y018183D01*
X022717Y017988D01*
X016364Y017988D01*
X016446Y018022D01*
X016728Y018304D01*
X016880Y018671D01*
X016880Y019069D01*
X016728Y019436D01*
X016446Y019718D01*
X016079Y019870D01*
X015681Y019870D01*
X015314Y019718D01*
X015032Y019436D01*
X014880Y019069D01*
X014880Y018671D01*
X015032Y018304D01*
X015314Y018022D01*
X015396Y017988D01*
X005462Y017988D01*
X004969Y018482D01*
X004969Y023232D01*
X005236Y023500D01*
X005241Y023498D01*
X005733Y023498D01*
X005821Y023534D01*
X005889Y023602D01*
X005925Y023690D01*
X005925Y024009D01*
X005962Y023994D01*
X006453Y023994D01*
X006542Y024030D01*
X006609Y024098D01*
X006646Y024186D01*
X006646Y024498D01*
X007072Y024498D01*
X007160Y024534D01*
X007227Y024602D01*
X007264Y024690D01*
X007264Y025182D01*
X007227Y025270D01*
X007160Y025337D01*
X007072Y025374D01*
X006580Y025374D01*
X006492Y025337D01*
X006424Y025270D01*
X006418Y025256D01*
X004636Y025256D01*
X004518Y025207D01*
X004428Y025117D01*
X003672Y024361D01*
X003582Y024271D01*
X003533Y024153D01*
X003533Y018120D01*
X003582Y018003D01*
X004763Y016822D01*
X004628Y016957D02*
X004082Y016957D01*
X003924Y017115D02*
X004470Y017115D01*
X004311Y017274D02*
X003765Y017274D01*
X003607Y017432D02*
X004153Y017432D01*
X003994Y017591D02*
X003448Y017591D01*
X003290Y017749D02*
X003836Y017749D01*
X003677Y017908D02*
X003131Y017908D01*
X002973Y018066D02*
X003556Y018066D01*
X003533Y018225D02*
X002814Y018225D01*
X002656Y018383D02*
X003533Y018383D01*
X003533Y018542D02*
X002497Y018542D01*
X002339Y018700D02*
X003533Y018700D01*
X003533Y018859D02*
X002180Y018859D01*
X002022Y019017D02*
X003533Y019017D01*
X003533Y019176D02*
X001863Y019176D01*
X001705Y019334D02*
X003533Y019334D01*
X003533Y019493D02*
X001546Y019493D01*
X001388Y019651D02*
X003533Y019651D01*
X003533Y019810D02*
X001229Y019810D01*
X001160Y019879D02*
X019879Y001160D01*
X020981Y001160D01*
X039700Y019879D01*
X039700Y027481D01*
X033981Y033200D01*
X024129Y033200D01*
X020702Y029773D01*
X020525Y029700D01*
X020335Y029700D01*
X020158Y029773D01*
X020023Y029908D01*
X016731Y033200D01*
X006879Y033200D01*
X001160Y027481D01*
X001160Y019879D01*
X001160Y019968D02*
X003533Y019968D01*
X003533Y020127D02*
X001160Y020127D01*
X001160Y020285D02*
X003533Y020285D01*
X003533Y020444D02*
X001160Y020444D01*
X001160Y020602D02*
X003533Y020602D01*
X003533Y020761D02*
X001160Y020761D01*
X001160Y020919D02*
X003533Y020919D01*
X003533Y021078D02*
X001160Y021078D01*
X001160Y021236D02*
X003533Y021236D01*
X003533Y021395D02*
X001160Y021395D01*
X001160Y021553D02*
X003533Y021553D01*
X003533Y021712D02*
X001160Y021712D01*
X001160Y021870D02*
X003533Y021870D01*
X003533Y022029D02*
X001160Y022029D01*
X001160Y022187D02*
X003533Y022187D01*
X003533Y022346D02*
X001160Y022346D01*
X001160Y022504D02*
X003533Y022504D01*
X003533Y022663D02*
X001160Y022663D01*
X001160Y022821D02*
X003533Y022821D01*
X003533Y022980D02*
X001160Y022980D01*
X001160Y023138D02*
X003533Y023138D01*
X003533Y023297D02*
X001160Y023297D01*
X001160Y023455D02*
X003533Y023455D01*
X003533Y023614D02*
X001160Y023614D01*
X001160Y023772D02*
X003533Y023772D01*
X003533Y023931D02*
X001160Y023931D01*
X001160Y024089D02*
X003533Y024089D01*
X003572Y024248D02*
X001160Y024248D01*
X001160Y024406D02*
X003717Y024406D01*
X003876Y024565D02*
X001160Y024565D01*
X001160Y024723D02*
X004034Y024723D01*
X004193Y024882D02*
X001160Y024882D01*
X001160Y025040D02*
X004351Y025040D01*
X004428Y025117D02*
X004428Y025117D01*
X004510Y025199D02*
X001160Y025199D01*
X001160Y025357D02*
X006539Y025357D01*
X006826Y024936D02*
X004700Y024936D01*
X003853Y024089D01*
X003853Y018184D01*
X005034Y017003D01*
X023145Y017003D01*
X023932Y017790D01*
X023932Y022908D01*
X022184Y024656D01*
X022184Y024676D01*
X022180Y024680D01*
X022527Y025040D02*
X024143Y025040D01*
X024114Y025028D02*
X023832Y024746D01*
X023680Y024379D01*
X023680Y023981D01*
X023832Y023614D01*
X024114Y023332D01*
X024481Y023180D01*
X024879Y023180D01*
X025246Y023332D01*
X025528Y023614D01*
X025680Y023981D01*
X025680Y024379D01*
X025528Y024746D01*
X025246Y025028D01*
X024879Y025180D01*
X024481Y025180D01*
X024114Y025028D01*
X023967Y024882D02*
X022638Y024882D01*
X022680Y024723D02*
X023823Y024723D01*
X023757Y024565D02*
X022728Y024565D01*
X022887Y024406D02*
X023691Y024406D01*
X023680Y024248D02*
X023045Y024248D01*
X023204Y024089D02*
X023680Y024089D01*
X023701Y023931D02*
X023362Y023931D01*
X023521Y023772D02*
X023767Y023772D01*
X023832Y023614D02*
X023679Y023614D01*
X023838Y023455D02*
X023991Y023455D01*
X023996Y023297D02*
X024200Y023297D01*
X024155Y023138D02*
X025854Y023138D01*
X025854Y022980D02*
X024249Y022980D01*
X024252Y022821D02*
X025854Y022821D01*
X025854Y022663D02*
X024252Y022663D01*
X024252Y022504D02*
X025854Y022504D01*
X025854Y022346D02*
X024252Y022346D01*
X024252Y022187D02*
X025854Y022187D01*
X025854Y022029D02*
X024252Y022029D01*
X024252Y021870D02*
X025854Y021870D01*
X025854Y021712D02*
X024252Y021712D01*
X024252Y021553D02*
X025854Y021553D01*
X025854Y021395D02*
X024252Y021395D01*
X024252Y021236D02*
X025854Y021236D01*
X025854Y021078D02*
X024252Y021078D01*
X024252Y020919D02*
X025854Y020919D01*
X025854Y020761D02*
X024252Y020761D01*
X024252Y020602D02*
X025854Y020602D01*
X025854Y020444D02*
X024252Y020444D01*
X024252Y020285D02*
X025854Y020285D01*
X025854Y020127D02*
X024252Y020127D01*
X024252Y019968D02*
X025854Y019968D01*
X025854Y019810D02*
X024252Y019810D01*
X024252Y019651D02*
X025854Y019651D01*
X025854Y019493D02*
X024252Y019493D01*
X024252Y019334D02*
X025854Y019334D01*
X025854Y019176D02*
X024252Y019176D01*
X024252Y019017D02*
X025854Y019017D01*
X025854Y018859D02*
X024252Y018859D01*
X024252Y018700D02*
X025854Y018700D01*
X025854Y018542D02*
X024252Y018542D01*
X024252Y018383D02*
X025854Y018383D01*
X025854Y018225D02*
X024252Y018225D01*
X024252Y018066D02*
X025854Y018066D01*
X025789Y017908D02*
X024252Y017908D01*
X024252Y017749D02*
X025631Y017749D01*
X025472Y017591D02*
X024185Y017591D01*
X024026Y017432D02*
X025314Y017432D01*
X025155Y017274D02*
X023868Y017274D01*
X023709Y017115D02*
X024997Y017115D01*
X024838Y016957D02*
X023551Y016957D01*
X023392Y016798D02*
X024680Y016798D01*
X025290Y016164D02*
X035985Y016164D01*
X035827Y016006D02*
X025132Y016006D01*
X024973Y015847D02*
X035668Y015847D01*
X035510Y015689D02*
X024815Y015689D01*
X024656Y015530D02*
X035351Y015530D01*
X035193Y015372D02*
X024498Y015372D01*
X024339Y015213D02*
X035034Y015213D01*
X034876Y015055D02*
X024181Y015055D01*
X024022Y014896D02*
X034717Y014896D01*
X034559Y014738D02*
X023864Y014738D01*
X025449Y016323D02*
X036144Y016323D01*
X036302Y016481D02*
X025607Y016481D01*
X025766Y016640D02*
X036461Y016640D01*
X036619Y016798D02*
X025924Y016798D01*
X026083Y016957D02*
X036778Y016957D01*
X036936Y017115D02*
X026241Y017115D01*
X026400Y017274D02*
X037095Y017274D01*
X037253Y017432D02*
X026558Y017432D01*
X026688Y017591D02*
X037412Y017591D01*
X037570Y017749D02*
X026734Y017749D01*
X026734Y017908D02*
X037729Y017908D01*
X037887Y018066D02*
X026734Y018066D01*
X026734Y018225D02*
X038046Y018225D01*
X038204Y018383D02*
X026734Y018383D01*
X026734Y018542D02*
X038363Y018542D01*
X038521Y018700D02*
X026734Y018700D01*
X026734Y018859D02*
X038680Y018859D01*
X038838Y019017D02*
X026734Y019017D01*
X026734Y019176D02*
X038997Y019176D01*
X039155Y019334D02*
X026734Y019334D01*
X026734Y019493D02*
X039314Y019493D01*
X039472Y019651D02*
X026734Y019651D01*
X026734Y019810D02*
X039631Y019810D01*
X039700Y019968D02*
X026734Y019968D01*
X026734Y020127D02*
X039700Y020127D01*
X039700Y020285D02*
X026734Y020285D01*
X026734Y020444D02*
X039700Y020444D01*
X039700Y020602D02*
X038935Y020602D01*
X038858Y020570D02*
X039082Y020663D01*
X039253Y020834D01*
X039346Y021059D01*
X039346Y021301D01*
X039253Y021526D01*
X039082Y021697D01*
X038858Y021790D01*
X038615Y021790D01*
X038391Y021697D01*
X038219Y021526D01*
X038126Y021301D01*
X038126Y021059D01*
X038219Y020834D01*
X038391Y020663D01*
X038615Y020570D01*
X038858Y020570D01*
X038538Y020602D02*
X026734Y020602D01*
X026734Y020761D02*
X038293Y020761D01*
X038184Y020919D02*
X026734Y020919D01*
X026734Y021078D02*
X038126Y021078D01*
X038126Y021236D02*
X026734Y021236D01*
X026734Y021395D02*
X038165Y021395D01*
X038247Y021553D02*
X026734Y021553D01*
X026734Y021712D02*
X038426Y021712D01*
X039047Y021712D02*
X039700Y021712D01*
X039700Y021870D02*
X026734Y021870D01*
X026734Y022029D02*
X039700Y022029D01*
X039700Y022187D02*
X026734Y022187D01*
X026734Y022346D02*
X039700Y022346D01*
X039700Y022504D02*
X026734Y022504D01*
X026734Y022663D02*
X038392Y022663D01*
X038391Y022663D02*
X038615Y022570D01*
X038858Y022570D01*
X039082Y022663D01*
X039253Y022834D01*
X039346Y023059D01*
X039346Y023301D01*
X039253Y023526D01*
X039135Y023644D01*
X039182Y023663D01*
X039353Y023834D01*
X039446Y024059D01*
X039446Y024301D01*
X039353Y024526D01*
X039182Y024697D01*
X039135Y024716D01*
X039253Y024834D01*
X039346Y025059D01*
X039346Y025301D01*
X039253Y025526D01*
X039135Y025644D01*
X039182Y025663D01*
X039353Y025834D01*
X039446Y026059D01*
X039446Y026301D01*
X039353Y026526D01*
X039182Y026697D01*
X038958Y026790D01*
X038715Y026790D01*
X038491Y026697D01*
X038319Y026526D01*
X038226Y026301D01*
X038226Y026059D01*
X038319Y025834D01*
X038437Y025716D01*
X038391Y025697D01*
X038219Y025526D01*
X038126Y025301D01*
X038126Y025059D01*
X038219Y024834D01*
X038391Y024663D01*
X038437Y024644D01*
X038319Y024526D01*
X038226Y024301D01*
X038226Y024059D01*
X038319Y023834D01*
X038437Y023716D01*
X038391Y023697D01*
X038219Y023526D01*
X038126Y023301D01*
X038126Y023059D01*
X038219Y022834D01*
X038391Y022663D01*
X038233Y022821D02*
X026734Y022821D01*
X026734Y022980D02*
X038159Y022980D01*
X038126Y023138D02*
X026734Y023138D01*
X026734Y023297D02*
X038126Y023297D01*
X038190Y023455D02*
X026734Y023455D01*
X026734Y023614D02*
X038307Y023614D01*
X038382Y023772D02*
X026734Y023772D01*
X026734Y023931D02*
X038279Y023931D01*
X038226Y024089D02*
X026734Y024089D01*
X026734Y024248D02*
X038226Y024248D01*
X038270Y024406D02*
X026734Y024406D01*
X026734Y024565D02*
X038358Y024565D01*
X038331Y024723D02*
X026734Y024723D01*
X026734Y024882D02*
X038200Y024882D01*
X038134Y025040D02*
X026734Y025040D01*
X026734Y025199D02*
X038126Y025199D01*
X038149Y025357D02*
X026734Y025357D01*
X026734Y025516D02*
X038215Y025516D01*
X038368Y025674D02*
X026734Y025674D01*
X026734Y025833D02*
X038321Y025833D01*
X038254Y025991D02*
X026734Y025991D01*
X026734Y026150D02*
X038226Y026150D01*
X038229Y026308D02*
X026734Y026308D01*
X026734Y026467D02*
X038295Y026467D01*
X038419Y026625D02*
X026699Y026625D01*
X026585Y026784D02*
X038699Y026784D01*
X038973Y026784D02*
X039700Y026784D01*
X039700Y026942D02*
X026426Y026942D01*
X026268Y027101D02*
X039700Y027101D01*
X039700Y027259D02*
X026109Y027259D01*
X025951Y027418D02*
X039700Y027418D01*
X039605Y027576D02*
X025792Y027576D01*
X025634Y027735D02*
X039447Y027735D01*
X039288Y027893D02*
X025475Y027893D01*
X025252Y028052D02*
X039130Y028052D01*
X038971Y028210D02*
X023189Y028210D01*
X023179Y028200D02*
X023361Y028382D01*
X023459Y028619D01*
X023459Y028875D01*
X023361Y029112D01*
X023179Y029294D01*
X022942Y029392D01*
X022686Y029392D01*
X022448Y029294D01*
X022267Y029112D01*
X022169Y028875D01*
X022169Y028619D01*
X022267Y028382D01*
X022448Y028200D01*
X022686Y028102D01*
X022942Y028102D01*
X023179Y028200D01*
X023348Y028369D02*
X038813Y028369D01*
X038654Y028527D02*
X023421Y028527D01*
X023459Y028686D02*
X038496Y028686D01*
X038337Y028844D02*
X023459Y028844D01*
X023406Y029003D02*
X038179Y029003D01*
X038020Y029161D02*
X023312Y029161D01*
X023117Y029320D02*
X037862Y029320D01*
X037703Y029478D02*
X003157Y029478D01*
X003315Y029637D02*
X037545Y029637D01*
X037386Y029795D02*
X020724Y029795D01*
X020882Y029954D02*
X037228Y029954D01*
X037069Y030112D02*
X021041Y030112D01*
X021199Y030271D02*
X036911Y030271D01*
X036752Y030429D02*
X021358Y030429D01*
X021516Y030588D02*
X036594Y030588D01*
X036435Y030746D02*
X021675Y030746D01*
X021833Y030905D02*
X036277Y030905D01*
X036118Y031063D02*
X021992Y031063D01*
X022150Y031222D02*
X035960Y031222D01*
X035801Y031380D02*
X022309Y031380D01*
X022467Y031539D02*
X035643Y031539D01*
X035484Y031697D02*
X022626Y031697D01*
X022784Y031856D02*
X035326Y031856D01*
X035167Y032014D02*
X022943Y032014D01*
X023101Y032173D02*
X035009Y032173D01*
X034850Y032331D02*
X023260Y032331D01*
X023418Y032490D02*
X034692Y032490D01*
X034533Y032648D02*
X023577Y032648D01*
X023735Y032807D02*
X034375Y032807D01*
X034216Y032965D02*
X023894Y032965D01*
X024052Y033124D02*
X034058Y033124D01*
X039254Y026625D02*
X039700Y026625D01*
X039700Y026467D02*
X039378Y026467D01*
X039444Y026308D02*
X039700Y026308D01*
X039700Y026150D02*
X039446Y026150D01*
X039418Y025991D02*
X039700Y025991D01*
X039700Y025833D02*
X039352Y025833D01*
X039193Y025674D02*
X039700Y025674D01*
X039700Y025516D02*
X039258Y025516D01*
X039323Y025357D02*
X039700Y025357D01*
X039700Y025199D02*
X039346Y025199D01*
X039339Y025040D02*
X039700Y025040D01*
X039700Y024882D02*
X039273Y024882D01*
X039142Y024723D02*
X039700Y024723D01*
X039700Y024565D02*
X039314Y024565D01*
X039403Y024406D02*
X039700Y024406D01*
X039700Y024248D02*
X039446Y024248D01*
X039446Y024089D02*
X039700Y024089D01*
X039700Y023931D02*
X039393Y023931D01*
X039291Y023772D02*
X039700Y023772D01*
X039700Y023614D02*
X039165Y023614D01*
X039283Y023455D02*
X039700Y023455D01*
X039700Y023297D02*
X039346Y023297D01*
X039346Y023138D02*
X039700Y023138D01*
X039700Y022980D02*
X039314Y022980D01*
X039240Y022821D02*
X039700Y022821D01*
X039700Y022663D02*
X039081Y022663D01*
X039226Y021553D02*
X039700Y021553D01*
X039700Y021395D02*
X039308Y021395D01*
X039346Y021236D02*
X039700Y021236D01*
X039700Y021078D02*
X039346Y021078D01*
X039288Y020919D02*
X039700Y020919D01*
X039700Y020761D02*
X039180Y020761D01*
X036952Y023294D02*
X036952Y023672D01*
X036979Y023700D01*
X035349Y025664D02*
X035349Y026058D01*
X031282Y026180D02*
X031097Y026180D01*
X031097Y026373D01*
X031019Y026452D01*
X027672Y025668D02*
X027629Y025711D01*
X027672Y025668D02*
X027672Y025526D01*
X025854Y025516D02*
X001160Y025516D01*
X001160Y025674D02*
X025854Y025674D01*
X025854Y025833D02*
X001160Y025833D01*
X001160Y025991D02*
X025854Y025991D01*
X025854Y026150D02*
X001160Y026150D01*
X001160Y026308D02*
X025816Y026308D01*
X025657Y026467D02*
X001160Y026467D01*
X001160Y026625D02*
X025499Y026625D01*
X025340Y026784D02*
X001160Y026784D01*
X001160Y026942D02*
X025182Y026942D01*
X025023Y027101D02*
X001160Y027101D01*
X001160Y027259D02*
X018680Y027259D01*
X018521Y027418D02*
X001160Y027418D01*
X001255Y027576D02*
X018362Y027576D01*
X018204Y027735D02*
X001413Y027735D01*
X001572Y027893D02*
X018045Y027893D01*
X017887Y028052D02*
X001730Y028052D01*
X001889Y028210D02*
X017204Y028210D01*
X017169Y028369D02*
X002047Y028369D01*
X002206Y028527D02*
X017169Y028527D01*
X017169Y028686D02*
X002364Y028686D01*
X002523Y028844D02*
X017169Y028844D01*
X017169Y029003D02*
X002681Y029003D01*
X002840Y029161D02*
X017169Y029161D01*
X017237Y029320D02*
X002998Y029320D01*
X003474Y029795D02*
X020136Y029795D01*
X019978Y029954D02*
X003632Y029954D01*
X003791Y030112D02*
X019819Y030112D01*
X019661Y030271D02*
X003949Y030271D01*
X004108Y030429D02*
X019502Y030429D01*
X019344Y030588D02*
X004266Y030588D01*
X004425Y030746D02*
X019185Y030746D01*
X019027Y030905D02*
X004583Y030905D01*
X004742Y031063D02*
X018868Y031063D01*
X018710Y031222D02*
X004900Y031222D01*
X005059Y031380D02*
X018551Y031380D01*
X018393Y031539D02*
X005217Y031539D01*
X005376Y031697D02*
X018234Y031697D01*
X018076Y031856D02*
X005534Y031856D01*
X005693Y032014D02*
X017917Y032014D01*
X017759Y032173D02*
X005851Y032173D01*
X006010Y032331D02*
X017600Y032331D01*
X017442Y032490D02*
X006168Y032490D01*
X006327Y032648D02*
X017283Y032648D01*
X017125Y032807D02*
X006485Y032807D01*
X006644Y032965D02*
X016966Y032965D01*
X016808Y033124D02*
X006802Y033124D01*
X011719Y027723D02*
X011755Y027688D01*
X011755Y027495D01*
X012163Y024248D02*
X006646Y024248D01*
X006646Y024406D02*
X015997Y024406D01*
X016155Y024565D02*
X007190Y024565D01*
X007264Y024723D02*
X016314Y024723D01*
X016472Y024882D02*
X007264Y024882D01*
X007264Y025040D02*
X018833Y025040D01*
X019180Y024680D02*
X016723Y024680D01*
X015973Y023930D01*
X015967Y023936D01*
X012574Y023936D01*
X012136Y023931D02*
X005925Y023931D01*
X005925Y023772D02*
X012136Y023772D01*
X012167Y023614D02*
X005894Y023614D01*
X005487Y023936D02*
X005219Y023936D01*
X004649Y023365D01*
X004649Y018349D01*
X005330Y017668D01*
X022849Y017668D01*
X023231Y018050D01*
X023231Y021774D01*
X022861Y022145D01*
X022857Y022145D01*
X022826Y022176D01*
X019684Y022176D01*
X019180Y022680D01*
X018621Y023176D02*
X020928Y023176D01*
X021428Y023676D01*
X022176Y023676D01*
X022208Y024180D02*
X022081Y024180D01*
X022208Y024180D01*
X022208Y024180D01*
X021917Y024248D02*
X019443Y024248D01*
X019478Y024089D02*
X021882Y024089D01*
X021752Y024406D02*
X019608Y024406D01*
X019673Y024565D02*
X021687Y024565D01*
X021680Y024723D02*
X019680Y024723D01*
X019638Y024882D02*
X021722Y024882D01*
X021833Y025040D02*
X019527Y025040D01*
X019279Y024180D02*
X019081Y024180D01*
X018897Y024256D01*
X018793Y024360D01*
X016856Y024360D01*
X016252Y023756D01*
X016634Y023756D01*
X016739Y023861D01*
X016829Y023951D01*
X016947Y024000D01*
X018793Y024000D01*
X018897Y024104D01*
X019081Y024180D01*
X019279Y024180D01*
X018917Y024248D02*
X016743Y024248D01*
X016585Y024089D02*
X018882Y024089D01*
X019180Y023680D02*
X017011Y023680D01*
X016761Y023430D01*
X016755Y023436D01*
X013235Y023436D01*
X012797Y023455D02*
X005191Y023455D01*
X005033Y023297D02*
X012797Y023297D01*
X012819Y023138D02*
X004969Y023138D01*
X004969Y022980D02*
X013454Y022980D01*
X013235Y022436D02*
X016818Y022436D01*
X017574Y021680D01*
X019180Y021680D01*
X018369Y022924D02*
X013893Y022924D01*
X012885Y022821D02*
X004969Y022821D01*
X004969Y022663D02*
X012797Y022663D01*
X012797Y022504D02*
X004969Y022504D01*
X004969Y022346D02*
X012259Y022346D01*
X012138Y022187D02*
X004969Y022187D01*
X004969Y022029D02*
X012136Y022029D01*
X012136Y021870D02*
X004969Y021870D01*
X004969Y021712D02*
X012136Y021712D01*
X012221Y021553D02*
X004969Y021553D01*
X004969Y021395D02*
X012797Y021395D01*
X012797Y021236D02*
X004969Y021236D01*
X004969Y021078D02*
X012850Y021078D01*
X013235Y021428D02*
X016645Y021428D01*
X016647Y021430D01*
X017885Y020192D01*
X021692Y020192D01*
X022180Y020680D01*
X022133Y021180D02*
X022133Y021180D01*
X022279Y021180D01*
X022133Y021180D01*
X022415Y021236D02*
X022911Y021236D01*
X022911Y021078D02*
X022490Y021078D01*
X022622Y020919D02*
X022911Y020919D01*
X022911Y020761D02*
X022680Y020761D01*
X022680Y020602D02*
X022911Y020602D01*
X022911Y020444D02*
X022623Y020444D01*
X022492Y020285D02*
X022911Y020285D01*
X022911Y020127D02*
X022409Y020127D01*
X022279Y020180D02*
X022133Y020180D01*
X022279Y020180D01*
X022133Y020180D02*
X022133Y020180D01*
X022180Y019680D02*
X021471Y018971D01*
X018026Y018971D01*
X016068Y020930D01*
X016046Y020908D01*
X013924Y020908D01*
X013486Y020919D02*
X004969Y020919D01*
X004969Y020761D02*
X013486Y020761D01*
X013511Y020602D02*
X004969Y020602D01*
X004969Y020444D02*
X016102Y020444D01*
X016260Y020285D02*
X004969Y020285D01*
X004969Y020127D02*
X016419Y020127D01*
X016577Y019968D02*
X004969Y019968D01*
X004969Y019810D02*
X015535Y019810D01*
X015247Y019651D02*
X004969Y019651D01*
X004969Y019493D02*
X015088Y019493D01*
X014990Y019334D02*
X004969Y019334D01*
X004969Y019176D02*
X014924Y019176D01*
X014880Y019017D02*
X004969Y019017D01*
X004969Y018859D02*
X014880Y018859D01*
X014880Y018700D02*
X004969Y018700D01*
X004969Y018542D02*
X014934Y018542D01*
X014999Y018383D02*
X005067Y018383D01*
X005226Y018225D02*
X015111Y018225D01*
X015270Y018066D02*
X005384Y018066D01*
X005180Y017330D02*
X004200Y018310D01*
X004200Y023676D01*
X004956Y024432D01*
X006208Y024432D01*
X006600Y024089D02*
X012136Y024089D01*
X012574Y021936D02*
X016684Y021936D01*
X017428Y021192D01*
X021692Y021192D01*
X022180Y021680D01*
X022680Y021712D02*
X022842Y021712D01*
X022911Y021553D02*
X022669Y021553D01*
X022602Y021395D02*
X022911Y021395D01*
X023538Y022121D02*
X023538Y017904D01*
X022963Y017330D01*
X005180Y017330D01*
X008679Y012360D02*
X019409Y012360D01*
X019409Y012202D02*
X008837Y012202D01*
X008996Y012043D02*
X019409Y012043D01*
X019409Y011885D02*
X009154Y011885D01*
X009313Y011726D02*
X019409Y011726D01*
X019409Y011568D02*
X009471Y011568D01*
X009630Y011409D02*
X019409Y011409D01*
X019409Y011251D02*
X009788Y011251D01*
X009947Y011092D02*
X019409Y011092D01*
X019409Y010934D02*
X010105Y010934D01*
X010264Y010775D02*
X019409Y010775D01*
X019409Y010617D02*
X010422Y010617D01*
X010581Y010458D02*
X019409Y010458D01*
X019409Y010300D02*
X018998Y010300D01*
X019254Y010141D02*
X019409Y010141D01*
X019409Y009983D02*
X019389Y009983D01*
X018492Y010300D02*
X010739Y010300D01*
X010898Y010141D02*
X018236Y010141D01*
X018101Y009983D02*
X011056Y009983D01*
X014385Y006654D02*
X026475Y006654D01*
X026317Y006496D02*
X014543Y006496D01*
X014702Y006337D02*
X026158Y006337D01*
X026000Y006179D02*
X014860Y006179D01*
X015019Y006020D02*
X025841Y006020D01*
X025683Y005862D02*
X015177Y005862D01*
X015336Y005703D02*
X025524Y005703D01*
X025366Y005545D02*
X015494Y005545D01*
X015653Y005386D02*
X025207Y005386D01*
X025049Y005228D02*
X015811Y005228D01*
X015970Y005069D02*
X024890Y005069D01*
X024732Y004911D02*
X020952Y004911D01*
X020961Y004907D02*
X020753Y004993D01*
X020528Y004993D01*
X020321Y004907D01*
X020162Y004748D01*
X020076Y004540D01*
X020076Y004316D01*
X020162Y004108D01*
X020321Y003949D01*
X020528Y003863D01*
X020753Y003863D01*
X020961Y003949D01*
X021120Y004108D01*
X021206Y004316D01*
X021206Y004540D01*
X021120Y004748D01*
X020961Y004907D01*
X021116Y004752D02*
X024573Y004752D01*
X024415Y004594D02*
X021184Y004594D01*
X021206Y004435D02*
X024256Y004435D01*
X024098Y004277D02*
X021189Y004277D01*
X021124Y004118D02*
X023939Y004118D01*
X023781Y003960D02*
X020971Y003960D01*
X020310Y003960D02*
X017079Y003960D01*
X016921Y004118D02*
X020157Y004118D01*
X020092Y004277D02*
X016762Y004277D01*
X016604Y004435D02*
X020076Y004435D01*
X020098Y004594D02*
X016445Y004594D01*
X016287Y004752D02*
X020166Y004752D01*
X020329Y004911D02*
X016128Y004911D01*
X017238Y003801D02*
X023622Y003801D01*
X023464Y003643D02*
X017396Y003643D01*
X017555Y003484D02*
X023305Y003484D01*
X023147Y003326D02*
X017713Y003326D01*
X017872Y003167D02*
X022988Y003167D01*
X022830Y003009D02*
X018030Y003009D01*
X018189Y002850D02*
X022671Y002850D01*
X022513Y002692D02*
X018347Y002692D01*
X018506Y002533D02*
X022354Y002533D01*
X022196Y002375D02*
X018664Y002375D01*
X018823Y002216D02*
X022037Y002216D01*
X021879Y002058D02*
X018981Y002058D01*
X019140Y001899D02*
X021720Y001899D01*
X021562Y001741D02*
X019298Y001741D01*
X019457Y001582D02*
X021403Y001582D01*
X021245Y001424D02*
X019615Y001424D01*
X019774Y001265D02*
X021086Y001265D01*
X021874Y006971D02*
X021923Y006971D01*
X019409Y015213D02*
X019133Y015213D01*
X019310Y015372D02*
X019409Y015372D01*
X016490Y018066D02*
X022795Y018066D01*
X022911Y018225D02*
X016649Y018225D01*
X016761Y018383D02*
X022911Y018383D01*
X022911Y018542D02*
X016826Y018542D01*
X016880Y018700D02*
X017845Y018700D01*
X017687Y018859D02*
X016880Y018859D01*
X016880Y019017D02*
X017528Y019017D01*
X017370Y019176D02*
X016836Y019176D01*
X016770Y019334D02*
X017211Y019334D01*
X017053Y019493D02*
X016672Y019493D01*
X016513Y019651D02*
X016894Y019651D01*
X016736Y019810D02*
X016225Y019810D01*
X018369Y022924D02*
X018621Y023176D01*
X019680Y023614D02*
X020913Y023614D01*
X021071Y023772D02*
X019680Y023772D01*
X019617Y023931D02*
X021230Y023931D01*
X022180Y022680D02*
X022979Y022680D01*
X023538Y022121D01*
X025160Y023297D02*
X025854Y023297D01*
X025854Y023455D02*
X025369Y023455D01*
X025528Y023614D02*
X025854Y023614D01*
X025854Y023772D02*
X025593Y023772D01*
X025659Y023931D02*
X025854Y023931D01*
X025854Y024089D02*
X025680Y024089D01*
X025680Y024248D02*
X025854Y024248D01*
X025854Y024406D02*
X025669Y024406D01*
X025603Y024565D02*
X025854Y024565D01*
X025854Y024723D02*
X025537Y024723D01*
X025393Y024882D02*
X025854Y024882D01*
X025854Y025040D02*
X025217Y025040D01*
X025854Y025199D02*
X007257Y025199D01*
X007112Y025357D02*
X025854Y025357D01*
X022439Y028210D02*
X018973Y028210D01*
X018814Y028369D02*
X022280Y028369D01*
X022207Y028527D02*
X018656Y028527D01*
X018497Y028686D02*
X022169Y028686D01*
X022169Y028844D02*
X018459Y028844D01*
X018459Y029003D02*
X022222Y029003D01*
X022316Y029161D02*
X018459Y029161D01*
X018391Y029320D02*
X022511Y029320D01*
X016809Y023931D02*
X016426Y023931D01*
X016268Y023772D02*
X016650Y023772D01*
X021970Y019017D02*
X022911Y019017D01*
X022911Y018859D02*
X021811Y018859D01*
X021653Y018700D02*
X022911Y018700D01*
X022911Y019176D02*
X022128Y019176D01*
X022541Y019334D02*
X022911Y019334D01*
X022911Y019493D02*
X022644Y019493D01*
X022680Y019651D02*
X022911Y019651D01*
X022911Y019810D02*
X022668Y019810D01*
X022599Y019968D02*
X022911Y019968D01*
X029755Y017967D02*
X029767Y017979D01*
X029889Y017979D01*
D20*
X029889Y017979D03*
X036952Y023294D03*
X035349Y025664D03*
X031282Y026180D03*
X027672Y025526D03*
X013893Y022924D03*
X013235Y022436D03*
X012574Y021936D03*
X013235Y021428D03*
X013924Y020908D03*
X013235Y023436D03*
X012574Y023936D03*
X011755Y027495D03*
X006826Y024936D03*
X006208Y024432D03*
X005487Y023936D03*
D21*
X017814Y028747D02*
X018928Y027633D01*
X025113Y027633D01*
X026294Y026452D01*
X026294Y017790D01*
X020637Y012133D01*
X020637Y007184D01*
X019849Y007184D02*
X019849Y015708D01*
X019995Y015853D01*
M02*
